<svg xmlns="http://www.w3.org/2000/svg" xmlns:xlink="http://www.w3.org/1999/xlink" width="784.57" height="513.322" viewBox="0 0 784.57 513.322">
  <defs>
    <linearGradient id="linear-gradient" x1="0.5" y1="1" x2="0.5" gradientUnits="objectBoundingBox">
      <stop offset="0" stop-color="gray" stop-opacity="0.251"/>
      <stop offset="0.54" stop-color="gray" stop-opacity="0.122"/>
      <stop offset="1" stop-color="gray" stop-opacity="0.102"/>
    </linearGradient>
    <linearGradient id="linear-gradient-2" x1="-2.497" y1="1" x2="-2.497" y2="0" xlink:href="#linear-gradient"/>
  </defs>
  <g id="people" transform="translate(-1003.593 514.954)">
    <ellipse id="Ellipse_7" data-name="Ellipse 7" cx="392.285" cy="61.7" rx="392.285" ry="61.7" transform="translate(1003.593 -125.032)" fill="#6c63ff" opacity="0.1"/>
    <path id="Path_33" data-name="Path 33" d="M893.31,472.98v42.769L882,538.564h0l-.358.722-29.931-1.977-11.506-.764-26.706-1.76V483.623l26.706.75,11.94.337,30.212.855Z" transform="translate(760.467 -656.312)" fill="#ff6584"/>
    <path id="Path_34" data-name="Path 34" d="M922.509,476.58v40.245l-2.77,5.574h0l-2.826,5.714h0L911.2,539.64l.638-42.769.126-8.631,5.434-6.009h0l2.37-2.622Z" transform="translate(731.268 -657.387)" opacity="0.1"/>
    <path id="Path_35" data-name="Path 35" d="M893.834,455.474v14.941l-1.528,2.447-2.748,4.368-2.426,3.87-5.371,8.554-.126-.007-71.495-3.681V471.235l.182-.2,8.533-9.241,3.092-3.344,5.588-6.044Z" transform="translate(761.471 -650.164)" fill="#ff7591"/>
    <path id="Path_36" data-name="Path 36" d="M881.761,482.857V497.6l-71.621-3.688V479.176l.182-.2Z" transform="translate(761.471 -658.105)" opacity="0.1"/>
    <path id="Path_37" data-name="Path 37" d="M924.364,456.78v14.941L912.29,490.96V476.222Z" transform="translate(730.942 -651.47)" opacity="0.15"/>
    <path id="Path_38" data-name="Path 38" d="M893.286,464.928l-.007,10.033-.007,4.845-.021,37.945h0l-2.826,5.714.421-39.789.063-6.093h0l.1-8.989-68.438-4.221,3.092-3.344Z" transform="translate(757.756 -652.74)" fill="#3f3d56"/>
    <path id="Path_39" data-name="Path 39" d="M868.368,467.29l-4.8,10.412-.042,5.308-.435,52.6-11.506-.764V477.008l6.135-9.718Z" transform="translate(749.083 -654.611)" fill="#3f3d56"/>
    <path id="Path_40" data-name="Path 40" d="M888.455,544.508a15.159,15.159,0,0,1-8.582.3,3.435,3.435,0,0,1-1.5-.7,3.913,3.913,0,0,1-.933-1.844,14.508,14.508,0,0,1-.82-4.41,4.908,4.908,0,0,1,1.837-3.94,4.3,4.3,0,0,0,.7-.526,2.959,2.959,0,0,0,.54-1.094c.841-2.5,2.461-5.139,5.069-5.546,2.4-.365,4.592,1.311,6.45,2.889l4.067,3.464a6.415,6.415,0,0,1,11.968-.161,22.7,22.7,0,0,1,9.045-6.212,2.8,2.8,0,0,1,2.377-.091,2.651,2.651,0,0,1,.947,1.269,19.526,19.526,0,0,1,1.767,7.713,1.353,1.353,0,0,1,1.57.54,3.568,3.568,0,0,1,.519,1.7,23.418,23.418,0,0,1,.161,2.8,4.206,4.206,0,0,1-.7,2.8c-.827.968-2.265,1.066-3.506,1.094a1.415,1.415,0,0,1-.365,2.1,4.1,4.1,0,0,1-2.377.463c-3.162,0-6.528-.119-9.164-1.872-1.038-.7-1.907-1.62-2.952-2.314-2.552-1.69-5.763-1.767-8.715-1.627C893.11,541.444,890.993,543.652,888.455,544.508Z" transform="translate(713.207 -731.128)" fill="#3f3d56"/>
    <path id="Path_41" data-name="Path 41" d="M879.846,551.227s-26.4,3.681-30.086,19.632l5.532-.813L859.176,577s4.095-15.551,16.168-19.239,16.372-4.291,16.372-4.291,8.414,2.04,15.958,26.4l4.3-5.939,7.572,1.641s-5.525-19.036-20.466-24.35Z" transform="translate(721.234 -738.541)" fill="#3f3d56"/>
    <path id="Path_42" data-name="Path 42" d="M828.756,496.84v57.774l-15.271,30.808v.007L813,586.4l-40.434-2.671L757.023,582.7l-36.073-2.384v-69.1l36.073,1.017,16.133.456,40.813,1.15Z" transform="translate(788.127 -663.442)" fill="#6c63ff"/>
    <path id="Path_43" data-name="Path 43" d="M868.2,501.7v54.366l-3.73,7.523v.007l-3.828,7.713h0l-7.713,15.565.862-57.773.175-11.653,7.334-8.112v-.007l3.2-3.534Z" transform="translate(748.682 -664.895)" opacity="0.1"/>
    <path id="Path_44" data-name="Path 44" d="M829.478,473.184v20.186l-2.075,3.3-3.7,5.9-3.281,5.23-7.25,11.555-.175-.014-96.574-4.964V494.47l.238-.259,11.534-12.48,4.172-4.522,7.551-8.168Z" transform="translate(789.481 -655.134)" fill="#6c63ff"/>
    <path id="Path_45" data-name="Path 45" d="M813.17,510.177v19.905L716.42,525.1V505.2l.238-.259Z" transform="translate(789.481 -665.863)" opacity="0.1"/>
    <path id="Path_46" data-name="Path 46" d="M870.718,474.95v20.186L854.41,521.12V501.215Z" transform="translate(748.24 -656.9)" opacity="0.15"/>
    <path id="Path_47" data-name="Path 47" d="M828.733,485.956l-.014,13.56v6.535l-.028,51.26v.007l-3.828,7.713.575-53.749.084-8.224v-.007l.133-12.144-92.445-5.693,4.172-4.522Z" transform="translate(784.463 -658.616)" fill="#3f3d56"/>
    <path id="Path_48" data-name="Path 48" d="M795.068,489.15l-6.479,14.065-.056,7.173-.589,71.046L772.4,580.4v-78.12l8.294-13.132Z" transform="translate(772.75 -661.144)" fill="#3f3d56"/>
    <path id="Path_49" data-name="Path 49" d="M808,564a20.516,20.516,0,0,1-11.59.407,4.606,4.606,0,0,1-2.026-.939,5.266,5.266,0,0,1-1.262-2.489,19.631,19.631,0,0,1-1.108-5.967,6.632,6.632,0,0,1,2.482-5.315,6.591,6.591,0,0,0,.94-.7,3.9,3.9,0,0,0,.7-1.479c1.129-3.379,3.323-6.948,6.85-7.488,3.246-.5,6.205,1.767,8.708,3.9l5.49,4.677a8.673,8.673,0,0,1,16.168-.217,30.7,30.7,0,0,1,12.221-8.414,3.767,3.767,0,0,1,3.218-.126,3.653,3.653,0,0,1,1.276,1.711,26.46,26.46,0,0,1,2.384,10.419,1.823,1.823,0,0,1,2.1.7,4.832,4.832,0,0,1,.7,2.3,32.421,32.421,0,0,1,.224,3.779,5.665,5.665,0,0,1-1,3.786c-1.122,1.3-3.064,1.444-4.782,1.486.827.736.421,2.216-.5,2.84a5.51,5.51,0,0,1-3.211.624c-4.277-.042-8.82-.161-12.375-2.538-1.4-.933-2.58-2.181-3.989-3.113-3.45-2.286-7.783-2.391-11.779-2.2C814.285,559.855,811.424,562.849,808,564Z" transform="translate(738.493 -735.047)" fill="#3f3d56"/>
    <path id="Path_50" data-name="Path 50" d="M796.356,573.08s-35.66,4.978-40.666,26.538l7.467-1.108,5.251,9.4s5.532-21.034,21.84-25.984,22.114-5.805,22.114-5.805,11.33,2.762,21.56,35.66l5.805-8.021,10.258,2.216s-7.467-25.711-27.646-32.9Z" transform="translate(749.348 -745.074)" fill="#3f3d56"/>
    <path id="Path_51" data-name="Path 51" d="M928.81,537.77v35.758L919.359,592.6h0l-.3.6-25.024-1.655-9.62-.638-22.324-1.472V546.667l22.324.624,9.984.281,25.262.715Z" transform="translate(745.945 -675.675)" fill="#3f3d56"/>
    <path id="Path_52" data-name="Path 52" d="M953.221,540.77v33.654l-2.307,4.656h0l-2.37,4.775v.007L943.77,593.5l.533-35.758.112-7.215,4.536-5.027h0l1.984-2.188Z" transform="translate(721.534 -676.572)" opacity="0.1"/>
    <path id="Path_53" data-name="Path 53" d="M929.253,523.126V535.62l-1.283,2.04-2.293,3.653-2.026,3.239-4.487,7.145h-.112l-59.772-3.078V536.3l.147-.161,7.138-7.727,2.587-2.79,4.67-5.062Z" transform="translate(746.785 -670.532)" fill="#3f3d56"/>
    <path id="Path_54" data-name="Path 54" d="M919.164,546.019v12.319L859.28,555.26V542.941l.147-.161Z" transform="translate(746.785 -677.172)" opacity="0.1"/>
    <path id="Path_55" data-name="Path 55" d="M954.779,524.22v12.494L944.69,552.791V540.472Z" transform="translate(721.259 -671.625)" opacity="0.15"/>
    <path id="Path_56" data-name="Path 56" d="M928.79,531.033v8.393l-.007,4.046-.014,31.726h0l-2.37,4.775.358-33.262.049-5.1h0l.084-7.516-57.22-3.527,2.587-2.791Z" transform="translate(743.679 -672.689)" fill="#6c63ff"/>
    <path id="Path_57" data-name="Path 57" d="M907.96,533.01l-4.01,8.708-.035,4.431-.365,43.975-9.62-.638v-48.35l5.132-8.126Z" transform="translate(736.429 -674.252)" fill="#6c63ff"/>
    <path id="Path_58" data-name="Path 58" d="M931.387,611.338a12.747,12.747,0,0,1-7.173.252,2.922,2.922,0,0,1-1.255-.589,3.3,3.3,0,0,1-.778-1.535,12.166,12.166,0,0,1-.7-3.7,4.1,4.1,0,0,1,1.536-3.288,3.513,3.513,0,0,0,.582-.442,2.415,2.415,0,0,0,.449-.911c.7-2.1,2.061-4.3,4.242-4.634,2.012-.309,3.842,1.094,5.392,2.412l3.4,2.9a5.364,5.364,0,0,1,10.005-.126,19.086,19.086,0,0,1,7.565-5.188,2.328,2.328,0,0,1,1.984-.077,2.229,2.229,0,0,1,.792,1.059,16.266,16.266,0,0,1,1.472,6.45,1.122,1.122,0,0,1,1.311.449,3.029,3.029,0,0,1,.442,1.4,20.178,20.178,0,0,1,.133,2.342,3.506,3.506,0,0,1-.617,2.342,3.859,3.859,0,0,1-2.959.918,1.192,1.192,0,0,1-.3,1.76,3.436,3.436,0,0,1-1.991.386c-2.643,0-5.462-.1-7.663-1.571-.869-.575-1.6-1.346-2.468-1.928-2.1-1.4-4.817-1.479-7.285-1.36C935.278,608.772,933.511,610.623,931.387,611.338Z" transform="translate(699.8 -751.992)" fill="#6c63ff"/>
    <path id="Path_59" data-name="Path 59" d="M924.2,616.94s-22.072,3.078-25.15,16.428l4.621-.7,3.246,5.819s3.422-13.006,13.518-16.084,13.686-3.59,13.686-3.59,7.011,1.711,13.322,22.065l3.6-4.957,6.31,1.4s-4.62-15.909-17.108-20.333Z" transform="translate(706.503 -758.182)" fill="#6c63ff"/>
    <path id="Path_60" data-name="Path 60" d="M784.766,211.78c-.785-4.7-15.355-14.864-15.355-14.864s-6.429-3.506-9.816-7.565c-2.181-2.58-2.861-2.552-3.064-2.2a1.052,1.052,0,0,0-.477-.161c-.133-.1-.266-.189-.393-.294h0a.94.94,0,0,0-.54-.961,5.37,5.37,0,0,1-.5-.351,16.058,16.058,0,0,1-1.634-6.885c-.161-2.945-3.506-2.2-4.564-1.879-.771-1.465-1.528-3-2.237-4.529a8.053,8.053,0,0,0,.729-1.578c2.033-4.487,1.585-9.627,2.468-14.366.638-3.436,1.956-7.011,1.7-10.356v-.245a.121.121,0,0,1,0,.049,9.058,9.058,0,0,0-.561-2.44c-.582-1.507-1.606-2.8-2.1-4.368-.736-2.258-.266-4.754-.876-7.053a10.483,10.483,0,0,0-5.918-6.436,28.938,28.938,0,0,0-8.757-2.1c-7.488-.954-15.425-1.521-22.261,1.676a3.9,3.9,0,0,1-2.1.568,6.226,6.226,0,0,1-1.893-.89,5.654,5.654,0,0,0-5.777.9,17.274,17.274,0,0,0-3.842,4.74,14.809,14.809,0,0,1-3.961,4.635c-2,1.353-4.634,1.809-6.191,3.639a5.883,5.883,0,0,0-1.29,3.029.121.121,0,0,0,0-.049v.989a7.537,7.537,0,0,0,0,.89,19.362,19.362,0,0,0,1.325,4.978,6.942,6.942,0,0,0,1.809,3.127c2.4,1.991,6.184.112,9.115,1.22a6.927,6.927,0,0,1,.7.33l-.105.337a23.839,23.839,0,0,0,23.081,30.464,12.93,12.93,0,0,0,1.472-.056c.07.259.147.519.21.778a26.345,26.345,0,0,1,.7,8.918l-.147-1.3a6.648,6.648,0,0,0-1-.393,8.834,8.834,0,0,0-2.98-.456c-3.26-.049-8.175,1.29-13.413,7.755,0,0-6.689,3.786-8.659,4.7a.974.974,0,0,0-.365.421h0s-8.848,13.763-9.767,18.952l-.126.7-15-.7a27.7,27.7,0,0,0-2.524-10.8,3.864,3.864,0,0,0-1.36-1.809c-1-.61-2.307-.28-3.415.133a32.653,32.653,0,0,0-12.992,8.855,9.241,9.241,0,0,0-17.185.231l-5.84-4.908c-2.657-2.251-5.8-4.649-9.255-4.123-3.744.575-6.079,4.34-7.285,7.909a4.088,4.088,0,0,1-.771,1.564,2.722,2.722,0,0,1-.217.182l-4.6-.21-8.021,8.624-4.438,4.775L582.243,246.7l-.259.273v13.167a23.952,23.952,0,0,0-.883,2.924l.883-.133v5.09l3.38.175v60.7l38.345,2.517,16.526,1.066,29.2,1.914c0,2.755,1.15,6.626,3.6,8.147a6.732,6.732,0,0,1,1.613,1.451c-.126.245-.252.5-.372.75-1.171,2.419-2.209,5.118-2.026,6.794a9.311,9.311,0,0,1-1.4,6.065s-8.834,27.87-8.638,35.877-3.148,25.612-3.148,25.612-3.646,11.344-1.479,14.57,4.628,17.311,4.628,17.311a14.438,14.438,0,0,1,1.57,5.967c-.105,2.741,1.578,7.712,1.578,7.712l5.511,20.242s-.589,5.378,1.479,9.192,1.865,2.636.883,9.29,1.178,12.81,4.726,14.766a2.2,2.2,0,0,1,1.017,3.043h-.035c-.9-.358-1.655,1.543-2.1,3.078-.273.28-.456.442-.456.442l.308.077c-.2.736-.308,1.29-.308,1.29s-9.248,7.825-9.816,10.657-7.088,4.3-7.088,4.3-9.816,2.734-12.4,4.109a4.719,4.719,0,0,0-2.713,3.793,10.656,10.656,0,0,0,.351,3.828c.989,4.01,14.766,4.4,21.357,3.33s20.277-4.992,20.277-4.992,14.366-1.4,18.6-3.127.883-6.254.883-6.254v-.428c.105-1.634.4-7.565-.617-9.157-.771-1.206-.743-4.207-.638-6.121,2.875-5.258-3.3-21.034-3.3-21.034s1.185-15.425.393-17.7-4.13-21.413-4.13-21.413-2.068-8.708-1.283-10.173-.491-5.672-.491-5.672-3.344-4.691-3.05-6.156-.982-4.109-.982-4.109,10.04-15.257,9.15-18.089.393-7.432.393-7.432l2.8-4.747c1.865-3.169,4.123-6.976,4.908-8.161.968-1.507,3.3-7.923,4.592-11.625.547-1.571.918-2.65.918-2.65s1.578,28.747,2.952,31.684,3.45,26.1,3.45,26.1a16.269,16.269,0,0,1,.982,6.457c-.2,3.618,3.148,19.358,3.148,19.358s1.479,11.148.491,14.079-.2,24.54-.2,24.54-5.413,4.207-6.787,7.425.2,12.031.2,12.031l.631.3a18.343,18.343,0,0,0-1.122,3.8c-.2,1.858-3.155,10.272-2.854,11.443s-1.283,4.789-1.479,6.647-2.657,4.6-2.854,5.609a23.728,23.728,0,0,1-1.087,2.58,25.473,25.473,0,0,0-1.276,3.975c-.982,4.1,10.727,4.789,10.727,4.789,17.318,3.225,20.473-9.97,20.473-9.97s2.16-11.737,2.952-12.62a1.458,1.458,0,0,0,.133-1.122h0a15.292,15.292,0,0,0-2.5-5.532c-.554-.645-.6-2.328-.5-3.828a7.918,7.918,0,0,0,1.479-.273c7.011-2.054,4.137-13.889,4.137-13.889s4.719-7.818,4.719-10.854,1.676-12.319,1.676-12.319c6-10.952,3.639-37.546,4.627-39.7s-2.068-10.166-4.529-13.784-1.472-13.4,0-16.231-1.472-12.62-1.472-12.62,2.854-18.973,2.755-21.9,2.454-11.639,2.454-11.639,2.559-4.494,1.97-5.861,1.97-4.908,1.283-6.457.589-6.352,1.865-9.192a55,55,0,0,0,2.1-9.01l.21-1.171c2.868,1.844,5.476,3.218,6.45,2.847,1.753-.7-1.038-9.816-2.959-15.509.33-.245.463-.435.33-.526-1.178-.778.133-4.3.133-4.3,6.955-4.207,4.592-7.3,2.363-9.115s-.785-7.011-1.444-9.115.785-11.6,1.97-18.51a13.448,13.448,0,0,0-.042-4.536c1.269-1.949,2.573-4,3.716-5.9,3.933-6.514,12.333-37.546,12.333-37.546l-.056-.161c.82-1.648,1.4-2.987,1.76-3.877C790.277,236.81,785.551,216.47,784.766,211.78Zm-61.16-17.865.182-.091v.154ZM685.429,526.751a3.105,3.105,0,0,1-1.248-.245Z" transform="translate(801.527 -610.395)" fill="url(#linear-gradient)"/>
    <path id="Path_61" data-name="Path 61" d="M618.47,370.955c5.763,2.188,19.183,2.433,25.143,2.426h2.931l3.821-7.776-3.821-6.485s-3.506-.961-8.161-1.8c-6.871-1.241-16.273-2.209-20.754.575C610.113,362.534,610.954,368.1,618.47,370.955Z" transform="translate(792.174 -680.224)" fill="#fec2be"/>
    <path id="Path_62" data-name="Path 62" d="M654.69,373.9h2.931l3.821-7.776-3.821-6.485s-3.506-.961-8.161-1.8C653.239,360.6,662.326,366.625,654.69,373.9Z" transform="translate(781.097 -680.746)" opacity="0.1"/>
    <path id="Path_63" data-name="Path 63" d="M717.684,243.692l-1.69-1.942s-8.687,13.742-9.591,18.931-2.1,11.155-2.1,11.155-2.167,6.731-3.569,9.718-2.72,5.833-2.847,7.131.519,4.151-2.209,5.96-3.372,6.745-3.372,6.745-9.816,9.592-15.039,9.851-20.095,2.854-19.576,5.448-6.226,4.151-8.946,4.8,17.528,8.414,5.707,18.412c0,0,7.516,1.556,8.294,3.372s8.687-1.038,8.687-1.038,1.69-4.018,7.523-4.277,8.813-2.854,8.813-3.246,5.833-3.625,9.08-4.536,7.516-1.3,7.649-2.2,19.442-84.276,19.442-84.276Z" transform="translate(781.387 -646.051)" fill="#4c4981"/>
    <path id="Path_64" data-name="Path 64" d="M717.684,243.692l-1.69-1.942s-8.687,13.742-9.591,18.931-2.1,11.155-2.1,11.155-2.167,6.731-3.569,9.718-2.72,5.833-2.847,7.131.519,4.151-2.209,5.96-3.372,6.745-3.372,6.745-9.816,9.592-15.039,9.851-20.095,2.854-19.576,5.448-6.226,4.151-8.946,4.8,17.528,8.414,5.707,18.412c0,0,7.516,1.556,8.294,3.372s8.687-1.038,8.687-1.038,1.69-4.018,7.523-4.277,8.813-2.854,8.813-3.246,5.833-3.625,9.08-4.536,7.516-1.3,7.649-2.2,19.442-84.276,19.442-84.276Z" transform="translate(781.387 -646.051)" opacity="0.05"/>
    <path id="Path_65" data-name="Path 65" d="M771.469,740.345c17.115,3.211,20.228-9.914,20.228-9.914s2.1-11.667,2.917-12.543a1.438,1.438,0,0,0,.133-1.115h0a15.208,15.208,0,0,0-2.468-5.5c-1.073-1.269-.2-6.521-.2-6.521L772.247,699.7a29.838,29.838,0,0,0-1.942,5.833c-.189,1.844-3.113,10.216-2.8,11.379s-1.262,4.768-1.458,6.612-2.622,4.571-2.8,5.546a23.84,23.84,0,0,1-1.073,2.559,25.047,25.047,0,0,0-1.262,3.954C759.886,739.665,771.469,740.345,771.469,740.345Z" transform="translate(747.809 -782.916)" fill="#ca8496"/>
    <path id="Path_66" data-name="Path 66" d="M771.456,747.622c17.115,3.211,20.228-9.914,20.228-9.914s2.1-11.667,2.917-12.543a1.438,1.438,0,0,0,.133-1.115l-4.123,11.807s-3.4,7.1-16.042,6.03c-7.194-.6-10.734-1.942-12.452-2.98a25.049,25.049,0,0,0-1.262,3.954C759.873,746.942,771.456,747.622,771.456,747.622Z" transform="translate(747.822 -790.194)" opacity="0.1"/>
    <path id="Path_67" data-name="Path 67" d="M793.051,729.871s-4.277.1-4.571-3.4Z" transform="translate(739.548 -790.917)" opacity="0.1"/>
    <path id="Path_68" data-name="Path 68" d="M688.592,517.6c2.1,3.211,4.571,17.213,4.571,17.213a14.519,14.519,0,0,1,1.557,5.932c-.1,2.72,1.557,7.713,1.557,7.713l5.448,20.13s-.589,5.343,1.458,9.115,1.844,2.629.869,9.241,1.171,12.74,4.669,14.682-1.556,6.513-1.556,6.513,22.366,6.03,27.036,2.335-2.433-21.974-2.433-21.974,1.164-15.369.393-17.606-4.088-21.315-4.088-21.315-2.04-8.652-1.262-10.11-.491-5.644-.491-5.644-3.3-4.663-3.015-6.121-.975-4.067-.975-4.067,9.914-15.173,9.045-17.991.386-7.39.386-7.39,1.255-2.152,2.762-4.719c1.844-3.155,4.074-6.934,4.824-8.112.954-1.507,3.253-7.888,4.536-11.562l.911-2.636s1.549,28.585,2.917,31.5,3.4,25.942,3.4,25.942a16.294,16.294,0,0,1,.975,6.422c-.2,3.6,3.113,19.253,3.113,19.253s1.458,11.085.484,14.023-.2,24.406-.2,24.406-5.35,4.207-6.71,7.39.2,11.961.2,11.961,15.558,7.776,22.436,5.735,4.081-13.805,4.081-13.805,4.67-7.783,4.67-10.8,1.655-12.249,1.655-12.249c5.932-10.9,3.6-37.342,4.564-39.481s-2.005-10.117-4.452-13.686-1.458-13.322,0-16.126-1.444-12.62-1.444-12.62,2.8-18.867,2.727-21.784,2.433-11.569,2.433-11.569,2.524-4.473,1.942-5.833,1.942-4.866,1.262-6.422.582-6.31,1.851-9.115a58.65,58.65,0,0,0,2.1-8.961c.6-3.358,1.038-6.31,1.038-6.31l-16.049-12.929-40.063-10.517-15.074-4.866-14.682,23.137s-1.514,2.419-2.861,5.209c-1.15,2.4-2.181,5.09-2,6.752a9.333,9.333,0,0,1-1.36,6.03s-8.785,27.73-8.589,35.716-3.085,25.479-3.085,25.479S686.454,514.388,688.592,517.6Z" transform="translate(769.603 -693.583)" fill="#4c4981"/>
    <path id="Path_69" data-name="Path 69" d="M659.843,209.76v60.683L643.8,302.808h0l-.512,1.024-42.468-2.8-16.322-1.08-37.889-2.5V224.855l37.889,1.073,16.946.477,42.86,1.213Z" transform="translate(840.231 -577.644)" fill="#6c63ff"/>
    <path id="Path_70" data-name="Path 70" d="M701.272,214.87v57.1l-3.919,7.9v.007l-4.025,8.1v.007l-8.1,16.35.9-60.683.182-12.242,7.705-8.526h0l3.359-3.716Z" transform="translate(798.802 -579.172)" opacity="0.1"/>
    <path id="Path_71" data-name="Path 71" d="M660.594,184.924v21.2l-2.174,3.471-3.891,6.2-3.45,5.49-7.614,12.13-.182-.007L541.85,228.184V207.276L542.1,207l12.109-13.111,4.389-4.74,7.923-8.582Z" transform="translate(841.653 -568.92)" fill="#6c63ff"/>
    <path id="Path_72" data-name="Path 72" d="M643.466,223.774v20.9L541.85,239.451V218.543l.252-.273Z" transform="translate(841.653 -580.188)" opacity="0.1"/>
    <path id="Path_73" data-name="Path 73" d="M703.909,186.78v21.2L686.78,235.263v-20.9Z" transform="translate(798.339 -570.776)" opacity="0.15"/>
    <path id="Path_74" data-name="Path 74" d="M659.812,198.335l-.014,14.24v6.871l-.028,53.833v.007l-4.025,8.1.6-56.448.091-8.645h0l.14-12.754-97.1-5.988,4.389-4.74Z" transform="translate(836.384 -572.578)" fill="#3f3d56"/>
    <path id="Path_75" data-name="Path 75" d="M624.461,201.69l-6.808,14.773-.056,7.53-.624,74.622-16.322-1.08V215.474l8.708-13.784Z" transform="translate(824.08 -575.232)" fill="#3f3d56"/>
    <path id="Path_76" data-name="Path 76" d="M636.01,276.045a21.58,21.58,0,0,1-12.165.428,4.957,4.957,0,0,1-2.1-.989,5.552,5.552,0,0,1-1.318-2.615,20.717,20.717,0,0,1-1.164-6.261,7.087,7.087,0,0,1,2.6-5.609,5.7,5.7,0,0,0,.989-.743,3.967,3.967,0,0,0,.764-1.549c1.192-3.548,3.506-7.3,7.194-7.867,3.414-.519,6.521,1.865,9.15,4.1l5.77,4.908a9.115,9.115,0,0,1,16.982-.231,32.211,32.211,0,0,1,12.838-8.806c1.094-.407,2.377-.743,3.372-.133a3.863,3.863,0,0,1,1.339,1.8,27.672,27.672,0,0,1,2.5,10.938,1.914,1.914,0,0,1,2.223.771,5.028,5.028,0,0,1,.743,2.412,34.176,34.176,0,0,1,.231,3.975,6,6,0,0,1-1.045,3.975c-1.178,1.367-3.211,1.514-5.02,1.556.869.771.442,2.328-.519,2.987a5.834,5.834,0,0,1-3.38.652c-4.487-.042-9.262-.168-13-2.664-1.472-.982-2.706-2.293-4.207-3.274-3.625-2.4-8.175-2.51-12.368-2.314C642.622,271.719,639.614,274.867,636.01,276.045Z" transform="translate(790.122 -648.62)" fill="#3f3d56"/>
    <path id="Path_77" data-name="Path 77" d="M623.805,285.62s-37.455,5.223-42.685,27.87l7.846-1.157,5.511,9.872s5.812-22.072,22.941-27.3,23.222-6.1,23.222-6.1,11.919,2.91,22.647,37.455l6.1-8.414,10.741,2.328s-7.839-27-29.034-34.552Z" transform="translate(801.521 -659.162)" fill="#3f3d56"/>
    <path id="Path_78" data-name="Path 78" d="M772.782,225.33c.617-.252,42.917-17.718,37.09-21.2-3.457-2.061-7.713-10.79-10.629-17.627-2.033-4.782-3.415-8.624-3.415-8.624s-33.949-6.03-21.8,14.78a38.471,38.471,0,0,1,4.284,10.251C781.778,217.084,773.063,225.07,772.782,225.33Z" transform="translate(744.652 -626.721)" fill="#fec2be"/>
    <path id="Path_79" data-name="Path 79" d="M774.03,192.664a38.471,38.471,0,0,1,4.284,10.251,23.727,23.727,0,0,0,20.046-14.093,22.464,22.464,0,0,0,.883-2.314c-2.033-4.782-3.415-8.624-3.415-8.624S761.88,171.854,774.03,192.664Z" transform="translate(744.652 -626.721)" opacity="0.1"/>
    <path id="Path_80" data-name="Path 80" d="M745.05,168.946a23.727,23.727,0,0,0,45.434,9.578,23.489,23.489,0,0,0,2.019-9.578,23.726,23.726,0,1,0-47.453,0Z" transform="translate(752.528 -617.202)" fill="#fec2be"/>
    <path id="Path_81" data-name="Path 81" d="M712.4,429.168c2.489,2.258,3.443,6.556,3.443,6.556s11.7,7.986,10.9,2.917,6.03-25.472,6.03-25.472l-.778,27.807s37.335-1.746,40.063-4.473,18.671-7.972,18.671-7.972,4.908,3.919,9.367,6.892c.6-3.358,1.038-6.31,1.038-6.31L785.08,416.183l-40.063-10.517L729.942,400.8l-14.682,23.137S713.746,426.377,712.4,429.168Z" transform="translate(762.286 -693.586)" opacity="0.1"/>
    <path id="Path_82" data-name="Path 82" d="M709.141,367.644c3.106,1.949,4.277,7.2,4.277,7.2s11.667,7.972,10.889,2.917,6.03-25.479,6.03-25.479l-.778,27.807s37.342-1.746,40.063-4.473,18.671-7.972,18.671-7.972,13.805,11.085,16.336,10.117-4.473-19.842-4.473-19.842l-7.194-110.464s1.942-32.869-.975-34.033a4.208,4.208,0,0,1-1.227-.764c-1.921-1.732-2.5-5.237-2.664-8.182-.189-3.506-4.859-1.753-4.859-1.753l2.72,3.506-24.1,14.647-.21.133a27.452,27.452,0,0,0-2.9-1.318c-2.1-.82-4.971-1.592-6.829-.82a6.584,6.584,0,0,0-2.552,2.293,28.887,28.887,0,0,0-3.281,6.654l-8.75,14.78s-4.473,19.632-4.473,20.417-1.36,18.671-2.917,20.613-3.113,11.674-2.531,14.591-.975,13.805-.975,13.805c-6.415,5.251-9.725,23.137-9.725,23.137s-10.11,20.031-10.889,22.366S706.028,365.7,709.141,367.644Z" transform="translate(764.326 -634.257)" fill="#fff"/>
    <path id="Path_83" data-name="Path 83" d="M785.85,221.98c2.363,3.506,9.192,8.414,9.192,8.414l19.709-16.645c-1.921-1.732-2.5-5.237-2.664-8.182-.189-3.506-4.859-1.753-4.859-1.753l.561.7a3.134,3.134,0,0,1-.841,4.6Z" transform="translate(740.334 -634.582)" opacity="0.1"/>
    <path id="Path_84" data-name="Path 84" d="M785.85,220.87c2.363,3.506,9.192,8.414,9.192,8.414l19.709-16.645c-1.921-1.732-2.5-5.237-2.664-8.182-.189-3.506-4.859-1.753-4.859-1.753l.561.7a3.134,3.134,0,0,1-.841,4.6Z" transform="translate(740.334 -634.251)" fill="#fff"/>
    <path id="Path_85" data-name="Path 85" d="M772.85,231.263c2.545,3.05,6.156,6.5,5.988,4.768s2.153-5.546,3.632-7.257a10.763,10.763,0,0,0-7.068.189,6.662,6.662,0,0,0-2.552,2.3Z" transform="translate(744.22 -642.022)" opacity="0.1"/>
    <path id="Path_86" data-name="Path 86" d="M772.29,229.766c2.552,3.043,6.156,6.5,5.988,4.768s1.914-4.529,3.394-6.24c-2.1-.82-4.964-1.592-6.829-.827a6.548,6.548,0,0,0-2.552,2.3Z" transform="translate(744.387 -641.689)" fill="#fff"/>
    <circle id="Ellipse_8" data-name="Ellipse 8" cx="1.557" cy="1.557" r="1.557" transform="translate(1521.501 -398.86)" fill="#ff6584"/>
    <circle id="Ellipse_9" data-name="Ellipse 9" cx="1.557" cy="1.557" r="1.557" transform="translate(1509.701 -356.855)" fill="#ff6584"/>
    <circle id="Ellipse_10" data-name="Ellipse 10" cx="1.557" cy="1.557" r="1.557" transform="translate(1496.344 -314.325)" fill="#ff6584"/>
    <path id="Path_394" data-name="Path 394" d="M1.557,0A1.557,1.557,0,1,1,0,1.557,1.557,1.557,0,0,1,1.557,0Z" transform="translate(1495.958 -268.043)" fill="#ff6584"/>
    <circle id="Ellipse_12" data-name="Ellipse 12" cx="1.557" cy="1.557" r="1.557" transform="translate(1514.63 -379.025)" fill="#ff6584"/>
    <circle id="Ellipse_13" data-name="Ellipse 13" cx="1.557" cy="1.557" r="1.557" transform="translate(1504.127 -335.849)" fill="#ff6584"/>
    <circle id="Ellipse_14" data-name="Ellipse 14" cx="1.557" cy="1.557" r="1.557" transform="translate(1493.883 -293.452)" fill="#ff6584"/>
    <circle id="Ellipse_15" data-name="Ellipse 15" cx="1.557" cy="1.557" r="1.557" transform="translate(1496.218 -262.854)" fill="#ff6584"/>
    <path id="Path_87" data-name="Path 87" d="M812.284,218.162s-.259-2.335,3.113,1.683,9.725,7.523,9.725,7.523,14.394,10.11,15.166,14.78,5.441,24.89,2.98,31.635S822,312.809,822,312.809s4.908,5.833,3.765,12.7-2.594,16.336-1.949,18.412-.778,7.257,1.4,9.073,4.536,4.908-2.335,9.08c0,0-1.3,3.506-.133,4.277s-17.241,8.82-24.5,4.536-20.333-38.506-20.613-46.156,4.017-32.953,6.352-38.9,9.339-29.167,12.319-34.356S812.284,218.162,812.284,218.162Z" transform="translate(742.794 -638.8)" opacity="0.1"/>
    <path id="Path_88" data-name="Path 88" d="M813.385,218.162s-.259-2.335,3.113,1.683,9.725,7.523,9.725,7.523,14.387,10.11,15.173,14.78,5.441,24.89,2.98,31.635-21.293,39.025-21.293,39.025,4.908,5.833,3.765,12.7-2.594,16.336-1.949,18.412-.778,7.257,1.4,9.073,4.536,4.908-2.335,9.08c0,0-1.3,3.506-.133,4.277s-17.241,8.82-24.5,4.536-20.333-38.506-20.613-46.156,4.017-32.953,6.352-38.9,9.339-29.167,12.319-34.356S813.385,218.162,813.385,218.162Z" transform="translate(742.471 -638.8)" fill="#4c4981"/>
    <path id="Path_89" data-name="Path 89" d="M830.978,249.88S819.83,262.2,820.216,270.367C820.216,270.367,820.062,257.144,830.978,249.88Z" transform="translate(730.067 -648.481)" opacity="0.1"/>
    <path id="Path_90" data-name="Path 90" d="M808.088,278.73c0,.393-7.516,28.4-7.13,31.895s-2.2,13.868-2.2,13.868l-3.506-.911s2.72-14.387,3.239-19.7S808.088,278.73,808.088,278.73Z" transform="translate(737.525 -657.103)" opacity="0.1"/>
    <path id="Path_91" data-name="Path 91" d="M809.31,392.64c.259.393,17.767,20.228,12.838,21.651S809.31,392.64,809.31,392.64Z" transform="translate(733.323 -691.147)" opacity="0.1"/>
    <path id="Path_92" data-name="Path 92" d="M829.84,385.43c.386.259,7.011,14.261,7.776,10.517s-5.7,10.244-6.738-.133Z" transform="translate(727.187 -688.992)" opacity="0.1"/>
    <path id="Path_93" data-name="Path 93" d="M763.672,224.369s-7.229-4.4-16.308,6.871c0,0-6.612,3.765-8.554,4.67s-4.151,25.024-4.151,25.024-4.277,10.37-3.113,16.336-3.365,26.454-3.365,26.454-7.523,36.817-7.264,37.861,7.649-11.541,7.516-17.76,6.226-25.676,7.138-26.839,7.138-34.5,7.138-34.5,5.055-14.135,8.294-18.8,7.264-13.483,8.947-15.039a16.982,16.982,0,0,1,4.018-2.594Z" transform="translate(759.742 -640.604)" opacity="0.1"/>
    <path id="Path_94" data-name="Path 94" d="M763.4,224.369s-8.105-4.4-17.185,6.871c0,0-6.612,3.765-8.554,4.67s-4.151,25.024-4.151,25.024-4.277,10.37-3.113,16.336-3.365,26.454-3.365,26.454-7.523,36.817-7.264,37.861,7.649-11.541,7.523-17.76,6.219-25.676,7.131-26.839,7.13-34.489,7.13-34.489,5.055-14.135,8.294-18.8,7.264-13.483,8.946-15.039a15.936,15.936,0,0,1,4.8-2.594Z" transform="translate(760.086 -640.604)" fill="#4c4981"/>
    <path id="Path_95" data-name="Path 95" d="M716.115,337.536s-15.425-10.11-22.885-5.125-19.632,12.06-7.649,17.185,28.585,4.144,28.585,4.144Z" transform="translate(771.808 -672.734)" fill="#fec2be"/>
    <path id="Path_96" data-name="Path 96" d="M746.216,475.228c2.3,4.908,4.207,29.721,5.483,37.581,1.844-3.155,4.074-6.934,4.824-8.112.954-1.507,3.253-7.888,4.536-11.562-1.465-3.562-5.511-13.77-5.511-17.528,0-4.571-7.39-10.307-7.39-10.307A8.585,8.585,0,0,0,746.216,475.228Z" transform="translate(752.435 -712.863)" opacity="0.1"/>
    <path id="Path_97" data-name="Path 97" d="M807.593,586.368s-17.115-7.3-22.17-2.1S807.593,586.368,807.593,586.368Z" transform="translate(740.649 -747.859)" opacity="0.1"/>
    <path id="Path_98" data-name="Path 98" d="M803.58,592.22s17.311,9.725,11.379,11.372S803.58,592.22,803.58,592.22Z" transform="translate(735.036 -750.794)" opacity="0.1"/>
    <path id="Path_99" data-name="Path 99" d="M729.8,580.15s7.39.484,4.564,1.942S729.8,580.15,729.8,580.15Z" transform="translate(757.086 -747.187)" opacity="0.1"/>
    <path id="Path_100" data-name="Path 100" d="M716.62,583.34c.1.484,21.49,7.39,17.311,10.517S716.62,583.34,716.62,583.34Z" transform="translate(761.025 -748.141)" opacity="0.1"/>
    <path id="Path_101" data-name="Path 101" d="M807,666.111c-3.2-.484-21.1-8.75-14.1-2.8A13.889,13.889,0,0,0,807,666.111Z" transform="translate(738.707 -771.4)" opacity="0.1"/>
    <path id="Path_102" data-name="Path 102" d="M797.243,677.51s-1.557,6.03-7.488,5.251S797.243,677.51,797.243,677.51Z" transform="translate(739.62 -776.285)" opacity="0.1"/>
    <path id="Path_103" data-name="Path 103" d="M802.148,693.24c-1.073-.295-13.812-6.128-14.1-3.408s12.151,7.488,13.125,6.03a5.2,5.2,0,0,0,.974-2.622Z" transform="translate(739.679 -779.752)" opacity="0.1"/>
    <path id="Path_104" data-name="Path 104" d="M741.227,684.012c-1.557-.1-16.126-4.761-19.057-.582Z" transform="translate(759.366 -777.535)" opacity="0.1"/>
    <path id="Path_105" data-name="Path 105" d="M728.116,688.281s-2.531-2.237-5.055-1.066S728.116,688.281,728.116,688.281Z" transform="translate(759.254 -779.084)" opacity="0.1"/>
    <path id="Path_106" data-name="Path 106" d="M775.122,723.28a4.333,4.333,0,0,1-3.3,3.4Z" transform="translate(744.527 -789.964)" opacity="0.1"/>
    <path id="Path_107" data-name="Path 107" d="M670.53,722.924c.975,3.982,14.591,4.375,21.1,3.3s20.031-4.929,20.031-4.929,14.2-1.36,18.377-3.113.876-6.226.876-6.226v-.414c.1-1.627.393-7.523-.61-9.115-1.171-1.844-.491-7.874-.491-7.874S709.7,698.448,709.3,696.6s-3.506-4.473-4.957-5.055-2.531,4.859-2.531,4.859-9.115,7.783-9.725,10.6-7.011,4.277-7.011,4.277-9.725,2.727-12.256,4.088a4.718,4.718,0,0,0-2.685,3.772,10.756,10.756,0,0,0,.393,3.786Z" transform="translate(774.926 -780.465)" fill="#ca8496"/>
    <path id="Path_108" data-name="Path 108" d="M670.542,731.469c.975,3.982,14.591,4.375,21.1,3.3s20.031-4.929,20.031-4.929,14.2-1.36,18.377-3.113.876-6.226.876-6.226v-.414l-20.333,4.5s-10.012,4.277-16.428,4.277c-5.609,0-18.159,2.3-23.986-1.185A10.754,10.754,0,0,0,670.542,731.469Z" transform="translate(774.914 -789.01)" opacity="0.1"/>
    <path id="Path_109" data-name="Path 109" d="M710,714.4s.975,6.422,4.866,8.561Z" transform="translate(763.003 -787.31)" opacity="0.1"/>
    <path id="Path_110" data-name="Path 110" d="M746.37,162.376a6.309,6.309,0,0,0,1.15.477c1.83.491,3.611-.736,5.23-1.718s3.856-1.711,5.259-.442c1.83,1.662.5,5.216,2.391,6.815,1.192,1.017,3.085.7,4.41,1.507s1.725,2.657,2.061,4.242,1,3.379,2.552,3.842,2.98-.554,4.5-.5c.315,0,.7.049.9-.182a.939.939,0,0,0,.147-.7,15,15,0,0,1,.5-5.609,5.421,5.421,0,0,1,3.947-3.7c2.734-.421,5.027,1.977,6.633,4.207a68.915,68.915,0,0,1,4.6,7.4,5.489,5.489,0,0,1,.231.512,23.489,23.489,0,0,0,2.019-9.577,23.726,23.726,0,0,0-46.527-6.57Z" transform="translate(752.134 -617.201)" opacity="0.1"/>
    <path id="Path_111" data-name="Path 111" d="M780.645,164.458c-1.606-2.251-3.9-4.642-6.633-4.207a5.366,5.366,0,0,0-3.947,3.695,14.892,14.892,0,0,0-.491,5.609.968.968,0,0,1-.161.7c-.21.231-.575.2-.89.182-1.521-.056-3.036.932-4.5.5s-2.216-2.258-2.552-3.842-.7-3.379-2.061-4.207-3.218-.491-4.41-1.507c-1.886-1.606-.561-5.16-2.391-6.815-1.4-1.276-3.639-.547-5.259.435s-3.4,2.209-5.23,1.725c-.617-.168-1.171-.526-1.774-.757-2.882-1.094-6.619.764-8.989-1.213a6.906,6.906,0,0,1-1.795-3.106,19.786,19.786,0,0,1-1.311-4.95,6.618,6.618,0,0,1,1.318-4.831c1.543-1.823,4.151-2.272,6.121-3.618a15.3,15.3,0,0,0,3.912-4.613,17.347,17.347,0,0,1,3.793-4.719,5.606,5.606,0,0,1,5.707-.89,6.429,6.429,0,0,0,1.872.883,3.892,3.892,0,0,0,2.1-.568c6.745-3.176,14.6-2.615,21.995-1.669a28.533,28.533,0,0,1,8.659,2.1,10.38,10.38,0,0,1,5.84,6.4c.6,2.286.14,4.768.869,7.011.491,1.528,1.5,2.8,2.1,4.34,1.578,4.095-.308,8.6-1.108,12.915-.876,4.719-.435,9.816-2.44,14.3-.393.876-.834,2.412-1.823,1.83-.7-.428-1.444-2.917-1.865-3.688A68.219,68.219,0,0,0,780.645,164.458Z" transform="translate(757.564 -611.438)" fill="#9a5e7f"/>
    <path id="Path_112" data-name="Path 112" d="M821.674,279.737l3.506,9.984s-8.3,30.85-12.193,37.342-9.591,14.78-9.591,14.78a35.609,35.609,0,0,1-20.747,2.594c-11.155-2.2-43.695-8.042-43.695-8.042s-2.72.519-4.144-1.557-8.82-3.113-8.82-3.113-8.554-12.445,1.949-17.634c0,0,1.29,2.854,6.871.911s7.257,1.556,7.257,1.556,9.08,1.816,14.135,1.164,17.634-.9,18.931-1.942a1.662,1.662,0,0,1,2.335.126s3.106-1.164,4.144-2.328,2.468,1.29,2.468,1.29,1.816-1.031,1.3-2.328,1.683-6.226,1.683-6.226a12.576,12.576,0,0,0,.386-5.833c-.652-2.594,3.246-11.919,3.246-11.919a16.5,16.5,0,0,0-.519-4.67c-.652-2.335,4.908-7.011,4.908-7.011s5.448-26.447,16.988-17.76S821.674,279.737,821.674,279.737Z" transform="translate(759.206 -650.72)" opacity="0.1"/>
    <path id="Path_113" data-name="Path 113" d="M822.808,279.737l3.506,9.984s-8.3,30.85-12.193,37.342-9.591,14.78-9.591,14.78a35.625,35.625,0,0,1-20.747,2.594c-11.148-2.2-43.709-8.042-43.709-8.042s-2.72.519-4.144-1.557-8.82-3.113-8.82-3.113-8.554-12.445,1.949-17.634c0,0,1.29,2.854,6.871.911s7.257,1.556,7.257,1.556,9.115,1.816,14.135,1.164,17.634-.9,18.931-1.942a1.655,1.655,0,0,1,2.328.126s3.113-1.164,4.151-2.328,2.468,1.29,2.468,1.29,1.809-1.031,1.29-2.328,1.69-6.226,1.69-6.226a12.576,12.576,0,0,0,.386-5.833c-.652-2.594,3.246-11.919,3.246-11.919a16.5,16.5,0,0,0-.519-4.67c-.652-2.335,4.908-7.011,4.908-7.011s5.448-26.447,16.989-17.76S822.808,279.737,822.808,279.737Z" transform="translate(758.871 -650.72)" fill="#4c4981"/>
    <path id="Path_114" data-name="Path 114" d="M744.109,348.82c.133.9,2.987,4.536,1.949,5.181s-2.727.259-1.171,2.335,1.4,5.188.393,4.8-2.72-5.055-2.72-6.871S744.109,348.82,744.109,348.82Z" transform="translate(753.272 -678.051)" opacity="0.1"/>
    <path id="Path_115" data-name="Path 115" d="M799.7,345.86s.778,9.073,7.13,11.667S799.7,345.86,799.7,345.86Z" transform="translate(736.195 -677.166)" opacity="0.1"/>
    <path id="Path_116" data-name="Path 116" d="M818.56,341.42c.386.126,9.073,4.8,5.181,7.516S818.56,341.42,818.56,341.42Z" transform="translate(730.558 -675.839)" opacity="0.1"/>
    <path id="Path_117" data-name="Path 117" d="M819.3,332.17s12.7,2.594,8.414,4.8S819.3,332.17,819.3,332.17Z" transform="translate(730.337 -673.075)" opacity="0.1"/>
    <g id="Group_1" data-name="Group 1" transform="translate(1485.756 -466.674)" opacity="0.1">
      <path id="Path_118" data-name="Path 118" d="M787.637,171.519a5.412,5.412,0,0,1,3.947-3.695c2.734-.421,5.027,1.97,6.633,4.207a68.131,68.131,0,0,1,4.6,7.4c.421.778,1.136,3.267,1.865,3.695.989.582,1.4-.961,1.823-1.837,2.005-4.459,1.564-9.57,2.44-14.289.512-2.755,1.458-5.609,1.669-8.336.294,3.386-1.031,6.955-1.669,10.412-.876,4.719-.435,9.816-2.44,14.289-.393.876-.834,2.412-1.823,1.837-.7-.428-1.444-2.917-1.865-3.695a68.138,68.138,0,0,0-4.571-7.39c-1.606-2.258-3.9-4.641-6.633-4.207a5.366,5.366,0,0,0-3.947,3.695,10.286,10.286,0,0,0-.519,2.917,13.415,13.415,0,0,1,.491-5Z" transform="translate(-745.793 -154.544)"/>
      <path id="Path_119" data-name="Path 119" d="M729.529,157.453a6.948,6.948,0,0,0,1.795,3.106c2.37,1.977,6.107.112,8.989,1.213a17.675,17.675,0,0,0,1.774.75c1.83.491,3.611-.7,5.23-1.718s3.856-1.711,5.259-.442c1.83,1.662.5,5.216,2.391,6.815,1.192,1.024,3.085.7,4.41,1.507s1.725,2.657,2.061,4.207,1,3.379,2.552,3.842,2.98-.554,4.5-.5c.315,0,.7.049.89-.182a.518.518,0,0,0,.112-.189c0,.519,0,1.038.049,1.557a.982.982,0,0,1-.161.7c-.21.231-.575.2-.89.182-1.521-.056-3.036.933-4.5.5s-2.216-2.265-2.552-3.842-.7-3.379-2.061-4.242-3.218-.491-4.41-1.507c-1.886-1.6-.561-5.153-2.391-6.815-1.4-1.269-3.639-.54-5.259.442s-3.4,2.209-5.23,1.718c-.617-.168-1.171-.519-1.774-.75-2.882-1.1-6.619.764-8.989-1.213a6.934,6.934,0,0,1-1.795-3.113,19.628,19.628,0,0,1-1.311-4.95,8.007,8.007,0,0,1,.042-1.739,21.035,21.035,0,0,0,1.269,4.663Z" transform="translate(-728.189 -152.79)"/>
    </g>
    <path id="Path_120" data-name="Path 120" d="M274.06,613.358c0,43.765,25.4,79.228,56.736,79.228s56.736-35.477,56.736-79.228S362.13,534.13,330.8,534.13,274.06,569.6,274.06,613.358Zm3.912-1.059c0-38.31,22.338-69.37,49.886-69.37S377.786,574,377.786,612.3s-22.338,69.37-49.893,69.37-49.921-31.06-49.921-69.37Z" transform="translate(893.291 -733.433)" fill="#35323e"/>
    <path id="Path_121" data-name="Path 121" d="M329.367,400.18l3.912,66.524h76.886a26.643,26.643,0,0,1,18.075,6.836A24.091,24.091,0,0,1,436,489.2v99.779H426.18l.07-6.85H329.332v-9.816h97.051l.8-80.056a13,13,0,0,0-.308-2.994c-.6-2.636-2.293-7.446-6.815-10.145a12.7,12.7,0,0,0-6.521-1.7H326.415l-4.908-69.454H292.2v-7.79Z" transform="translate(887.869 -693.4)" fill="#464353"/>
    <path id="Path_122" data-name="Path 122" d="M329.367,400.18l3.912,66.524h76.886a26.643,26.643,0,0,1,18.075,6.836A24.091,24.091,0,0,1,436,489.2v99.779H426.18l.07-6.85H329.332v-9.816h97.051l.8-80.056a13,13,0,0,0-.308-2.994c-.6-2.636-2.293-7.446-6.815-10.145a12.7,12.7,0,0,0-6.521-1.7H326.415l-4.908-69.454H292.2v-7.79Z" transform="translate(887.869 -693.4)" opacity="0.1"/>
    <path id="Path_123" data-name="Path 123" d="M269.748,366.13l-73.858-2.44L199.8,466.4l177.058,1.956-4.4-41.57L276.1,442.925Z" transform="translate(945.049 -623.649)" fill="#35323e"/>
    <rect id="Rectangle_3" data-name="Rectangle 3" width="97.822" height="9.781" transform="translate(1147.782 -121.057)" fill="#464353"/>
    <path id="Path_124" data-name="Path 124" d="M338.92,622.906V594.16h7.825v28.747c2.9,2.167,4.908,6.64,4.908,11.821,0,7.292-3.947,13.2-8.806,13.2s-8.806-5.911-8.806-13.2C334.047,629.546,336.045,625.073,338.92,622.906Z" transform="translate(875.365 -751.374)" fill="#464353"/>
    <path id="Path_125" data-name="Path 125" d="M388.372,669.022a9.2,9.2,0,0,0-12.024-.428h0s-11.737,7.825-.982,41.086c0,0,7.832,4.908,3.912-10.762s-1.956-25.437,1.956-25.437,8.806,10.762,8.806,10.762l6.85-2.931A41.6,41.6,0,0,0,388.372,669.022Z" transform="translate(864.37 -773.013)" fill="#464353"/>
    <path id="Path_126" data-name="Path 126" d="M493.012,669.022a9.2,9.2,0,0,0-12.024-.428h0s-11.737,7.825-.982,41.086c0,0,7.832,4.908,3.919-10.762s-1.963-25.437,1.956-25.437,8.8,10.762,8.8,10.762l6.85-2.931A41.6,41.6,0,0,0,493.012,669.022Z" transform="translate(833.097 -773.013)" fill="#464353"/>
    <ellipse id="Ellipse_16" data-name="Ellipse 16" cx="22.009" cy="29.35" rx="22.009" ry="29.35" transform="translate(1303.322 -95.62)" fill="#35323e"/>
    <ellipse id="Ellipse_17" data-name="Ellipse 17" cx="22.009" cy="29.35" rx="22.009" ry="29.35" transform="translate(1229.955 -95.62)" fill="#35323e"/>
    <path id="Path_127" data-name="Path 127" d="M459.289,592.466c-2.265-2.307-5.714-4.018-7.8-4.018-4.382,0-21.658-20.5-22.808-23.4-.421-1.059-1.122-.7-1.837.231-1.4-3.316-3.239-7.986-3.73-11.323,1.851-.47,3.036-.813,3.036-.813s.224-6.6-1.4-7.292h-.042c-1.571-.925-1.571-14.549-1.571-14.549s-3.681-12.039-3.218-16.386-9.192-37.434-9.192-37.434-2.531-19.891-7.138-21.9c-3.891-1.7-36.669-11.057-46.794-13.932-.217-.491-1.788-3.576-6.878-3.576-5.532,0-22.114.231-27.639-6.149a12.782,12.782,0,0,1-1.7-2.762c2.734-5.027,2.91-13.322,1.928-15.236-1.4-2.734-2.3-8.2-2.3-8.2s-.7-13.209-1.627-16.631-4.824-31.439-4.824-31.439-7.832-7.467-13.364-9.08a23.136,23.136,0,0,1-6.7-3.506c.084-.456.168-.869.231-1.22a20.705,20.705,0,0,0,7.011-11.737,3.3,3.3,0,0,0,.224-.778,7.9,7.9,0,0,0,.056-1.08c.07-.659.112-1.325.119-2v-.435a2.672,2.672,0,0,1,.386-.911c.806-1.157,2.468-1.4,3.793-1.977a5.758,5.758,0,0,0,.582-.309l.168-.112c.126-.077.245-.154.358-.238l.2-.161.287-.245.189-.189c.084-.084.168-.168.245-.259l.182-.217c.07-.091.14-.175.2-.266l.168-.245a2.81,2.81,0,0,0,.168-.266c.056-.091.112-.182.161-.28s.091-.175.133-.259.105-.21.147-.315a2.41,2.41,0,0,0,.1-.238c.049-.119.1-.238.14-.358l.063-.189c.042-.14.091-.28.133-.428v-.042a10.958,10.958,0,0,0,.323-3.639h0a5.672,5.672,0,0,0-.105-.911c-.344-2.1-1.1-4.27-.848-6.345h0a2.969,2.969,0,0,1,.091-.547V308.8a5.564,5.564,0,0,1,.154-.561c.287-.834.778-1.6,1.045-2.433h0a4.816,4.816,0,0,0,.133-.526v-.14c0-.147.042-.294.049-.442v-.105a5.323,5.323,0,0,0-.077-1.15h0a7.523,7.523,0,0,0-2.5-4.207,19.305,19.305,0,0,0-6.836-3.393c-6.31-2.1-12.88-4.095-19.562-4.522-2.931-.189-6.766-1.094-9.115.7-2.741,2.1-4.452,3.681-7.86,5.111-2.461,1.031-5.027,2.615-5.609,5.1a19.629,19.629,0,0,0-.119,3.337c-.112,2.244-1.192,4.333-1.886,6.478a9.816,9.816,0,0,0-.519,3.912v.063a2.467,2.467,0,0,0,.07.456v.077a5.228,5.228,0,0,0,.3.975c0,.042.035.077.049.119s.112.231.175.344l.063.119c.091.147.182.287.287.428.428.568,1,1.045,1.4,1.641a6.716,6.716,0,0,1,.8,3.022c.112,1.066.217,2.138.33,3.2v.238c-.035.47-.056.947-.056,1.4a21.248,21.248,0,0,0,.266,3.3c-2.335,1.76-4.74,3.87-5.237,5.413a2.615,2.615,0,0,0-.554,1.542h0c-2.195,1.718-11.52.7-11.52.7s-7.6,4.1-10.363,2.5-19.351,11.162-19.351,11.162-4.375.231-4.606,2.054c0,0-5.525,4.1-9.676,4.1s-6.682,5.237-6.682,5.237-6.906,3.19-9.213,3.646-6.219,2.734-5.062,3.646-.231,2.959-2.307,4.557-5.3,9.816-2.531,10.931,10.363,3.422,12.438,4.557a4.494,4.494,0,0,0,2.58.484,6.6,6.6,0,0,0,2.945-.484l.323-.4c2.706,2.054,6.233,4.165,9.627,4.5,5.343.533,16.827,2.72,21.693,3.667v.9c-.042,8.512.358,17.332,2,20.031,3.457,5.7,3.912,50.348,3.912,50.348s10.826,1.6,14.513,5.013c3.506,3.225,21.16,9.115,24.645,1.465l1.108.477c8.975,3.891,20.887,9.43,22.254,11.919,2.209,4.1,18.1,10.938,18.1,10.938s10.37.224,7.369,9.816,19.9,32.547,19.9,32.547a6.31,6.31,0,0,0,1.318,4.018,6.547,6.547,0,0,0,.982,1,19.445,19.445,0,0,0,7.1,2.552c.848,1.907,1.521,3.562,1.4,3.828s1,1.255,2.461,2.545h0a52.071,52.071,0,0,0,3.961,7.229h0a5.975,5.975,0,0,0,2.054,2.068c2.244.911,25.62,14.808,30,15.264,4.074.428,12.347,2.426,19.793-3.372l-1.2,9.718-.4,3.225s11.751,4.782,16.589,4.782,21.188,7.748,21.188,7.748,10.826,2.279,17.97-2.5C462.844,598.222,461.785,594.969,459.289,592.466Zm-74.32-105.647c-1.157,2.5-.407,7.06.14,7.06s3.085,3.646,1.7,7.747,8.982,41.458,13.588,46.471a1.065,1.065,0,0,1-.084.344c-.337,1.521-1.3,7.712,5.153,8.084h.736c.491,3.9,1.227,10.033,1.676,15.123-1.038-3.022-5.041-6.086-9.038-8.5a79.755,79.755,0,0,0-9.269-4.726s-12.9-3.071-15.663-5.609-11-7.088-11-7.088h0c-1.3-1.171-2.755-2.489-4.13-3.751.077-.533.126-1.094.154-1.69a27.011,27.011,0,0,0-1.22-3.506,6.817,6.817,0,0,0-2.005-2.9c-1.837-1.136-8.063-24.6-8.063-27.344s-3.912-15.719-5.294-18-2.994-7.993-2.994-7.993,20.957,3.211,40.54,1.4C379.864,482.03,386.083,484.309,384.968,486.819Zm-162.2-105.254v.266l-1.22-.3C222.305,381.565,222.768,381.565,222.768,381.565Zm66.5-34.769v1.269l-.238-.245c-.2-.217-.379-.442-.568-.666a6.286,6.286,0,0,0,.806-.358Zm22.542,47.951c-.231-1.339-.358-2.1-.358-2.1l.084-1.283ZM205.232,378.571a6.7,6.7,0,0,1,1.5-.323,3.716,3.716,0,0,1,1.283.351c.54.252,1.1.491,1.669.7l-4.018-.7a2.233,2.233,0,0,0-.428-.021Z" transform="translate(923.969 -660.748)" fill="url(#linear-gradient-2)"/>
    <path id="Path_128" data-name="Path 128" d="M414.17,647.647s4.628,9.578,4.4,10.258,9.942,8.813,9.942,8.813l11.078-7.909-1.129-5.427s-12.431-11.218-13.322-12.5S414.17,647.647,414.17,647.647Z" transform="translate(851.417 -765.296)" fill="#a1616a"/>
    <path id="Path_129" data-name="Path 129" d="M480.248,683.894c-7.713,7.46-16.729,5.2-21.034,4.747s-27.239-14.247-29.448-15.151a5.833,5.833,0,0,1-2.012-2.047h0a52.877,52.877,0,0,1-3.884-7.18c.154.042,7.677,2.188,9.577,0,0,0,3.162-3.884,3.842-3.884s.049-6.808.049-6.808,8.091,4.55,10.8,7.011,15.369,5.539,15.369,5.539a78.049,78.049,0,0,1,9.115,4.691C478.65,674.492,484.623,679.652,480.248,683.894Z" transform="translate(848.518 -769.13)" fill="#67647e"/>
    <path id="Path_130" data-name="Path 130" d="M481.9,691.252c-7.712,7.46-16.729,5.2-21.034,4.747s-27.239-14.247-29.448-15.151a5.834,5.834,0,0,1-2.012-2.047c2.678-1.6,20.151,9.514,25.044,11.548s17.262.9,24.273-2.033c3.506-1.465-.049-5.974-4.466-10.124C480.305,681.85,486.279,687.01,481.9,691.252Z" transform="translate(846.862 -776.488)" opacity="0.1"/>
    <path id="Path_131" data-name="Path 131" d="M503,661.878s3.225,24.189,2.4,27.344,20.207-10.854,20.207-10.854-7.355-15.159-5.2-18.643S503,661.878,503,661.878Z" transform="translate(824.868 -770.63)" fill="#a1616a"/>
    <path id="Path_132" data-name="Path 132" d="M461.436,614.6s-13.111,3.842-20.333,3.387c-6.31-.393-5.392-6.507-5.055-8.021.049-.217.084-.344.084-.344-4.522-4.971-14.724-42.068-13.322-46.121s-1.129-7.712-1.669-7.712-1.269-4.522-.14-7.011-4.971-4.747-4.971-4.747c-19.218,1.809-39.789-1.4-39.789-1.4s1.578,5.679,2.938,7.937,5.2,15.151,5.2,17.865,6.1,26,7.909,27.127a6.776,6.776,0,0,1,1.97,2.875,27.44,27.44,0,0,1,1.2,3.457c-.7,15.144-17.865,9.269-20.333,7.236a6.2,6.2,0,0,1-2.258-4.978s-22.436-22.78-19.5-32.266-7.236-9.718-7.236-9.718-15.593-6.8-17.767-10.868c-1.339-2.5-13.041-8-21.847-11.863-5.518-2.419-9.9-4.207-9.9-4.207l3.667-13.125,2.91-10.37,5.441-2.047,17.374-6.514,31.236-4.3,2.861.372,30.338,3.926s44.312,12.655,48.834,14.654,7.011,21.735,7.011,21.735,9.493,32.785,9.045,37.1,3.162,16.259,3.162,16.259,0,13.525,1.535,14.443h.049C461.653,608.044,461.436,614.6,461.436,614.6Z" transform="translate(886.548 -722.895)" fill="#4c4981"/>
    <path id="Path_133" data-name="Path 133" d="M441.252,555.694c-19.218,1.809-39.789-1.4-39.789-1.4-1.36-4.27-20.333-16.028-20.333-16.028C396.688,534.435,441.252,555.694,441.252,555.694Z" transform="translate(861.291 -734.531)" opacity="0.1"/>
    <path id="Path_134" data-name="Path 134" d="M428.463,644.4c-.7,15.144-17.865,9.269-20.333,7.236a6.346,6.346,0,0,1-.961-.989c6.009,2.216,16.652,3.919,20.116-9.7A27.444,27.444,0,0,1,428.463,644.4Z" transform="translate(853.509 -765.355)" fill="#444053"/>
    <path id="Path_135" data-name="Path 135" d="M520.762,660.834s-13.111,3.842-20.333,3.387c-6.31-.393-5.392-6.507-5.055-8.021,6.64-.21,18.068-.834,24-2.629h.049C520.979,654.278,520.762,660.834,520.762,660.834Z" transform="translate(827.222 -769.13)" fill="#444053"/>
    <path id="Path_136" data-name="Path 136" d="M428.463,644.4c-.7,15.144-17.865,9.269-20.333,7.236a6.346,6.346,0,0,1-.961-.989c6.009,2.216,16.652,3.919,20.116-9.7A27.444,27.444,0,0,1,428.463,644.4Z" transform="translate(853.509 -765.355)" opacity="0.1"/>
    <path id="Path_137" data-name="Path 137" d="M520.762,660.834s-13.111,3.842-20.333,3.387c-6.31-.393-5.392-6.507-5.055-8.021,6.64-.21,18.068-.834,24-2.629h.049C520.979,654.278,520.762,660.834,520.762,660.834Z" transform="translate(827.222 -769.13)" opacity="0.1"/>
    <path id="Path_138" data-name="Path 138" d="M554.48,715.946c-7.011,4.747-17.634,2.489-17.634,2.489s-16.049-7.712-20.8-7.712-16.28-4.747-16.28-4.747l.386-3.2,1.879-15.32s17.612-.449,18.314-2.033c0,0,3.169-7.79,4.3-4.908s18.089,23.229,22.38,23.229c2.047,0,5.434,1.7,7.656,3.982C557.116,710.231,558.125,713.464,554.48,715.946Z" transform="translate(825.834 -776.992)" fill="#67647e"/>
    <path id="Path_139" data-name="Path 139" d="M486.225,540.75s-14.724,9.269-10.622,11.3S486.225,540.75,486.225,540.75Z" transform="translate(833.272 -735.412)" opacity="0.1"/>
    <path id="Path_140" data-name="Path 140" d="M495.942,566.22s-12.662,12.024-7.916,12.34S495.942,566.22,495.942,566.22Z" transform="translate(829.662 -743.024)" opacity="0.1"/>
    <path id="Path_141" data-name="Path 141" d="M517.184,620.72s-6.394,12.116-4.01,14.177S517.184,620.72,517.184,620.72Z" transform="translate(821.987 -759.312)" opacity="0.1"/>
    <path id="Path_142" data-name="Path 142" d="M411,634.748c2.258,2.265-21.483-7.46-16.056-7.916S411,634.748,411,634.748Z" transform="translate(857.404 -761.134)" opacity="0.1"/>
    <path id="Path_143" data-name="Path 143" d="M333.889,383.2l-.75-.112c-2.8-.435-13.006-2.033-22.149-4.018-2.23-.484-4.389-.989-6.373-1.507-7.011-1.837-11.7-3.821-8.708-5.441,3.968-2.153,6.058-6.065,7.159-9.43q.161-.5.294-.968a24.938,24.938,0,0,0,.911-5.2s25.549-9.045,20.571,0c-2.44,4.438-.8,8.056,1.507,10.594a19.863,19.863,0,0,0,5.5,4.1Z" transform="translate(887.036 -679.153)" fill="#a1616a"/>
    <path id="Path_144" data-name="Path 144" d="M306.242,386.29s9.115,6.556,18.468,1.129,21.546,47.937,21.546,47.937l12.663,31.193s8.2,6.787-2.005,9.725-32.848-2.938-38.6,5.651-16.6,9.949-17.746,9.949-5.42-32.329-5.42-32.329L294,412.73Z" transform="translate(887.331 -689.249)" opacity="0.1"/>
    <path id="Path_145" data-name="Path 145" d="M356.3,473.688c-10.209,2.938-32.855-2.938-38.562,5.651a22.128,22.128,0,0,1-9.732,7.832,25.562,25.562,0,0,1-8.021,2.1c-.147,0-.358-.6-.61-1.62-1.592-6.542-4.81-30.71-4.81-30.71l-1.115-46.8,10.741-23.271,1.465-3.183a19.337,19.337,0,0,0,4.656,2.265,16.407,16.407,0,0,0,13.819-1.129c2.741-1.592,5.728,1.872,8.582,7.572,6.864,13.714,12.957,40.357,12.957,40.357l12.662,31.193a11,11,0,0,1,.862.827C360.955,466.683,364.328,471.374,356.3,473.688Z" transform="translate(887.496 -688.472)" fill="#f3f5f9"/>
    <path id="Path_146" data-name="Path 146" d="M307.654,469.873a58.894,58.894,0,0,1,.3,11.919,138.635,138.635,0,0,1-2.1,16.827,5.606,5.606,0,0,1-.273,1.024c-5.518-2.419-9.9-4.207-9.9-4.207l3.646-13.146c-1.592-6.542-4.81-30.71-4.81-30.71l-1.115-46.8,10.741-23.271c-7.011-1.837-11.7-3.821-8.708-5.441,4.347-2.363,6.443-6.843,7.453-10.4a37.938,37.938,0,0,0,6.422,6.913l.14.119.813,7.888.252,2.426.519,5.034s-2.489,59.456-4.3,62.85-.9,9.949.7,17.634C307.507,468.968,307.584,469.41,307.654,469.873Z" transform="translate(887.51 -683.087)" opacity="0.1"/>
    <path id="Path_147" data-name="Path 147" d="M286.465,461.549c1.585,7.712.224,20.333-1.585,30.072s-21.034,3.394-24.638,0S246,486.65,246,486.65s-.449-44.319-3.842-49.97c-1.613-2.678-2-11.428-1.956-19.877,0-7.593.407-14.941.547-17.437.035-.575.049-.89.049-.89s-14.724-24.869-14.464-26.678,4.522-2.033,4.522-2.033,16.273-12.663,18.987-11.078,10.173-2.489,10.173-2.489,9.458,1.073,11.407-.75a1,1,0,0,0,.351-.834c-.224-2.9,9.634-9.073,9.942-9.262-8.308,7.474,5.125,18.987,6.647,20.249l.14.119,1.585,15.348s-2.489,59.456-4.3,62.85S284.88,453.865,286.465,461.549Z" transform="translate(907.557 -677.014)" fill="#6c63ff"/>
    <circle id="Ellipse_18" data-name="Ellipse 18" cx="1.129" cy="1.129" r="1.129" transform="translate(1192.016 -281.182)" fill="#444053"/>
    <path id="Path_148" data-name="Path 148" d="M306.939,366.877l-6.871,6.647L290,356.7a1.017,1.017,0,0,0,.351-.834c-.224-2.9,9.634-9.073,9.935-9.262C291.977,354.1,305.425,365.615,306.939,366.877Z" transform="translate(888.527 -677.387)" opacity="0.1"/>
    <circle id="Ellipse_19" data-name="Ellipse 19" cx="1.129" cy="1.129" r="1.129" transform="translate(1189.759 -245.01)" opacity="0.1"/>
    <circle id="Ellipse_20" data-name="Ellipse 20" cx="1.129" cy="1.129" r="1.129" transform="translate(1189.759 -245.466)" fill="#444053"/>
    <path id="Path_149" data-name="Path 149" d="M307.576,365.587l-6.871,6.647L290.63,355.406a1,1,0,0,0,.351-.834c-.224-2.9,9.634-9.073,9.942-9.262C292.621,352.805,306.055,364.325,307.576,365.587Z" transform="translate(888.338 -677.002)" fill="#6c63ff"/>
    <path id="Path_150" data-name="Path 150" d="M402,465.816c-5.651,2.489-42.734-4.067-48.154-5.651s-13.322-13.791-9.5-22.612-1.36-17.437-1.36-17.437-8.14-17.4-9.949-20.8a154.774,154.774,0,0,1-6.107-14.92,1.4,1.4,0,0,1,.323-1.038c1.472-2.237,7.138-6.2,7.138-6.2,1.6.575,1.795-4,1.732-7.355-.035-1.879-.147-3.379-.147-3.379s.75.764,1.977,1.8c.449.379.961.792,1.521,1.22a23.565,23.565,0,0,0,7.138,3.926c5.427,1.6,13.111,9.01,13.111,9.01l-2.265,34.727s5.2,32.652,10.629,38.983,21.735,6.1,27.127,6.1S402,465.816,402,465.816Z" transform="translate(877.492 -683.314)" opacity="0.1"/>
    <path id="Path_151" data-name="Path 151" d="M402.632,463.895c-5.651,2.482-42.727-4.074-48.154-5.658s-13.322-13.791-9.493-22.6-1.36-17.409-1.36-17.409-8.14-17.409-9.949-20.8-5.574-13.266-6.1-14.92a1.3,1.3,0,0,1,.323-1.031c1.465-2.244,7.138-6.205,7.138-6.205,1.6.582,1.795-3.989,1.732-7.348-.035-1.886-.147-3.386-.147-3.386s.75.764,1.97,1.809c.449.372.961.792,1.528,1.22a23.361,23.361,0,0,0,7.124,3.891c5.427,1.606,13.111,9.017,13.111,9.017l-2.258,34.72s5.2,32.652,10.622,38.983,21.735,6.107,27.134,6.107S402.632,463.895,402.632,463.895Z" transform="translate(877.299 -682.746)" fill="#6c63ff"/>
    <path id="Path_152" data-name="Path 152" d="M341.476,365.82s-.217,1.2-.575,3.029c-1.213,6.205-4.116,19.765-6.212,19.239-1.5-.379-4.039-3.036-6.009-5.329,1.472-2.244,7.138-6.205,7.138-6.205,1.6.582,1.795-3.989,1.732-7.348l1.83-1.578Z" transform="translate(876.966 -683.131)" opacity="0.1"/>
    <path id="Path_153" data-name="Path 153" d="M340.829,364.53s-.21,1.2-.568,3.029c-1.22,6.205-4.123,19.765-6.212,19.239-1.5-.379-4.039-3.036-6.009-5.329,1.465-2.244,7.138-6.205,7.138-6.205,1.6.582,1.795-3.989,1.732-7.348l1.823-1.578Z" transform="translate(877.158 -682.746)" fill="#6c63ff"/>
    <path id="Path_154" data-name="Path 154" d="M286.214,329.83v22.941l-6.065,12.235h0l-.189.386L263.9,364.333l-6.17-.414-14.324-.947V335.537l14.324.407,6.408.182,16.2.456Z" transform="translate(930.847 -613.529)" fill="#ff6584"/>
    <path id="Path_155" data-name="Path 155" d="M301.875,331.76v21.588l-1.479,2.987h0l-1.521,3.064h0l-3.064,6.184.344-22.941.07-4.628,2.91-3.218v-.007l1.269-1.4Z" transform="translate(915.186 -614.106)" opacity="0.1"/>
    <path id="Path_156" data-name="Path 156" d="M286.5,320.448v8.007l-.82,1.311-1.472,2.349-1.3,2.075-2.875,4.585-.07-.007L241.62,336.8v-7.9l.091-.105,4.578-4.957,1.662-1.788,2.994-3.246Z" transform="translate(931.382 -610.233)" fill="#ff7591"/>
    <path id="Path_157" data-name="Path 157" d="M280.028,335.132v7.9l-38.408-1.977v-7.9l.091-.105Z" transform="translate(931.382 -614.491)" opacity="0.1"/>
    <path id="Path_158" data-name="Path 158" d="M302.871,321.15v8.007L296.4,339.478v-7.9Z" transform="translate(915.01 -610.935)" opacity="0.15"/>
    <path id="Path_159" data-name="Path 159" d="M286.2,325.512,286.2,330.9v2.6l-.007,20.347h0l-1.521,3.064.224-21.336.035-3.267V332.3l.056-4.817-36.7-2.265,1.662-1.788Z" transform="translate(929.391 -611.616)" fill="#3f3d56"/>
    <path id="Path_160" data-name="Path 160" d="M272.843,326.78l-2.573,5.588-.021,2.847-.238,28.207-6.17-.414V332l3.3-5.216Z" transform="translate(924.741 -612.617)" fill="#3f3d56"/>
    <path id="Path_161" data-name="Path 161" d="M302.395,407.119a8.091,8.091,0,0,1-4.6.161,1.816,1.816,0,0,1-.806-.372,2.041,2.041,0,0,1-.5-.989,7.657,7.657,0,0,1-.442-2.37,2.608,2.608,0,0,1,.982-2.1,2.463,2.463,0,0,0,.372-.28,1.508,1.508,0,0,0,.294-.589c.449-1.339,1.318-2.755,2.713-2.973s2.468.7,3.464,1.55l2.181,1.858a3.443,3.443,0,0,1,6.415-.091,12.158,12.158,0,0,1,4.852-3.323,1.515,1.515,0,0,1,1.276-.056,1.557,1.557,0,0,1,.512.7,10.517,10.517,0,0,1,.94,4.137.7.7,0,0,1,.841.294,1.858,1.858,0,0,1,.28.911,11.913,11.913,0,0,1,.091,1.5,2.237,2.237,0,0,1-.4,1.5,2.475,2.475,0,0,1-1.893.589.764.764,0,0,1-.2,1.129,2.195,2.195,0,0,1-1.276.252,8.725,8.725,0,0,1-4.908-1.01c-.561-.372-1.024-.869-1.585-1.234a7.648,7.648,0,0,0-4.677-.876C304.891,405.471,303.727,406.663,302.395,407.119Z" transform="translate(886.719 -692.578)" fill="#3f3d56"/>
    <path id="Path_162" data-name="Path 162" d="M297.776,410.714s-14.156,1.97-16.126,10.517l2.959-.435,2.1,3.73s2.195-8.344,8.666-10.321a69.335,69.335,0,0,1,8.778-2.3s4.5,1.094,8.561,14.156l2.307-3.183,4.06.876s-2.966-10.209-10.973-13.055Z" transform="translate(891.022 -696.544)" fill="#3f3d56"/>
    <path id="Path_163" data-name="Path 163" d="M351.249,453.663s-11.309-2.258-14.471-7.236-24.694-9.269-22.072-4.067,22.072,22.212,22.072,22.212l8.414,12.066,11.218-2.854,4.74-9.213Z" transform="translate(881.209 -705.3)" fill="#a1616a"/>
    <path id="Path_164" data-name="Path 164" d="M328.77,477.89s10.952,4.067,12.62,9.493S328.77,477.89,328.77,477.89Z" transform="translate(876.94 -716.625)" opacity="0.1"/>
    <path id="Path_165" data-name="Path 165" d="M319.183,486.9s-1,5.651,12.733,5.2Z" transform="translate(879.81 -719.318)" opacity="0.1"/>
    <path id="Path_166" data-name="Path 166" d="M217.3,383.519l-4.971-.449s-5.427,4.067-9.5,4.067-6.556,5.2-6.556,5.2-6.78,3.162-9.045,3.618-6.1,2.713-4.971,3.618-.224,2.938-2.258,4.522-5.2,9.718-2.489,10.847,10.173,3.393,12.207,4.522a5.616,5.616,0,0,0,4.522,0s11.975-15.6,18.082-12.656,14.471,2.938,14.471,2.938l6.563-13.791Z" transform="translate(922.459 -688.287)" opacity="0.1"/>
    <path id="Path_167" data-name="Path 167" d="M375.687,459.161a6.044,6.044,0,0,1-4.207,2.931,31.95,31.95,0,0,1-13.16-1.213s22.773-7.236.841-24.827h5.876l1.963-.743-.9-4.684-1.29-42.236,4.747-1.129s3.821,27.807,4.74,31.2,1.592,16.5,1.592,16.5.9,5.427,2.265,8.14C379.13,445.146,378.9,454.338,375.687,459.161Z" transform="translate(868.108 -689.539)" fill="#6c63ff"/>
    <path id="Path_168" data-name="Path 168" d="M374.388,479.643a6.051,6.051,0,0,1-4.207,2.931A31.972,31.972,0,0,1,357,481.36s22.773-7.236.841-24.827h5.883l1.956-.743C368.919,461.49,373.974,471.636,374.388,479.643Z" transform="translate(868.503 -710.02)" opacity="0.1"/>
    <path id="Path_169" data-name="Path 169" d="M375.687,479.643a6.044,6.044,0,0,1-4.207,2.931,31.95,31.95,0,0,1-13.16-1.213s22.773-7.236.841-24.827h5.876L367,455.79C370.2,461.49,375.273,471.636,375.687,479.643Z" transform="translate(868.108 -710.02)" fill="none"/>
    <path id="Path_170" data-name="Path 170" d="M375.687,479.643a6.044,6.044,0,0,1-4.207,2.931,31.95,31.95,0,0,1-13.16-1.213s22.773-7.236.841-24.827h5.876L367,455.79C370.2,461.49,375.273,471.636,375.687,479.643Z" transform="translate(868.108 -710.02)" fill="#6c63ff"/>
    <path id="Path_171" data-name="Path 171" d="M329.795,367.109a20.585,20.585,0,0,1-23.285-4.452q.161-.5.294-.968a24.939,24.939,0,0,0,.911-5.2s25.549-9.045,20.571,0C325.847,360.953,327.488,364.571,329.795,367.109Z" transform="translate(883.592 -679.141)" opacity="0.1"/>
    <path id="Path_172" data-name="Path 172" d="M339.38,336.579v.2a18.1,18.1,0,0,1-.112,1.984c-.07.652-.161,1.241-.28,1.851a20.585,20.585,0,0,1-39.642,2.657c-.133-.4-.259-.8-.372-1.206a20.5,20.5,0,0,1-.743-5.483,11.544,11.544,0,0,1,.056-1.4,20.571,20.571,0,0,1,41.094,1.4Z" transform="translate(886.067 -668.249)" fill="#a1616a"/>
    <path id="Path_173" data-name="Path 173" d="M339.4,336.766a9.221,9.221,0,0,0-.112,1.984,7.793,7.793,0,0,1-.056,1.073,3.087,3.087,0,0,1-.224.778c-.834,1.949-3.548,3.211-5.336,1.956a5.79,5.79,0,0,1-1.606-2.1c-1.9-3.506-4.543-7.593-8.7-7.663-1.774-.035-3.443.7-5.16,1.15s-3.744.491-5.027-.7c-.982-.9-1.444-2.433-2.762-2.748s-2.538.9-3.141,2.1-1.087,2.573-2.307,3.19c-.547.266-1.185.344-1.718.631-2.461,1.353-1.332,6.072-3.884,6.836l-.245.056-.126-1.262-.7-6.9a20.571,20.571,0,0,1,41.093,1.4Z" transform="translate(886.049 -668.24)" opacity="0.1"/>
    <path id="Path_174" data-name="Path 174" d="M301.386,298.9c-2.412,1.024-4.908,2.6-5.476,5.069a20.016,20.016,0,0,0-.112,3.309c-.112,2.23-1.178,4.3-1.851,6.429s-.925,4.628.435,6.443c.428.568.989,1.038,1.367,1.634a6.661,6.661,0,0,1,.792,2.994l1.115,11.127c2.875-.533,1.592-5.5,4.13-6.892.533-.287,1.171-.372,1.718-.638,1.22-.61,1.7-2.005,2.307-3.19s1.8-2.4,3.141-2.1,1.781,1.851,2.762,2.741c1.283,1.171,3.323,1.115,5.034.7s3.379-1.185,5.153-1.157c4.158.07,6.8,4.137,8.7,7.663a5.876,5.876,0,0,0,1.606,2.1c2.019,1.4,5.209-.372,5.56-2.741.189-1.325-.224-2.8.547-3.933s2.419-1.4,3.716-1.963c3.3-1.521,4.326-5.644,3.779-9.115-.4-2.489-1.4-5.062-.575-7.46.28-.827.764-1.585,1.024-2.412.7-2.328-.463-4.908-2.328-6.549a19.24,19.24,0,0,0-6.7-3.372c-6.17-2.061-12.62-4.06-19.2-4.487-2.875-.182-6.64-1.08-8.918.7C306.441,295.937,304.73,297.487,301.386,298.9Z" transform="translate(887.51 -661.284)" fill="#464353"/>
    <circle id="Ellipse_21" data-name="Ellipse 21" cx="1.129" cy="1.129" r="1.129" transform="translate(1193.145 -299.047)" opacity="0.1"/>
    <circle id="Ellipse_22" data-name="Ellipse 22" cx="1.129" cy="1.129" r="1.129" transform="translate(1193.145 -299.496)" fill="#444053"/>
    <circle id="Ellipse_23" data-name="Ellipse 23" cx="1.129" cy="1.129" r="1.129" transform="translate(1185.917 -228.057)" opacity="0.1"/>
    <circle id="Ellipse_24" data-name="Ellipse 24" cx="1.129" cy="1.129" r="1.129" transform="translate(1185.917 -228.506)" fill="#444053"/>
    <circle id="Ellipse_25" data-name="Ellipse 25" cx="1.129" cy="1.129" r="1.129" transform="translate(1189.759 -209.288)" opacity="0.1"/>
    <circle id="Ellipse_26" data-name="Ellipse 26" cx="1.129" cy="1.129" r="1.129" transform="translate(1189.759 -209.743)" fill="#444053"/>
    <path id="Path_175" data-name="Path 175" d="M362.578,419s2.489,16.883,0,19.828S362.578,419,362.578,419Z" transform="translate(867.166 -699.025)" opacity="0.1"/>
    <path id="Path_176" data-name="Path 176" d="M256.709,463.68s-4.754,10.23,0,20.038,7.712,13.791,6.1,20.052S256.709,463.68,256.709,463.68Z" transform="translate(899.107 -712.378)" opacity="0.1"/>
    <path id="Path_177" data-name="Path 177" d="M554.48,725.707c-7.011,4.747-17.634,2.489-17.634,2.489s-16.049-7.712-20.8-7.712-16.28-4.747-16.28-4.747l.386-3.2c4.691.9,15.341,3.05,16.568,4.1,1.585,1.36,21.034,7.916,21.034,7.916s13.237-1.655,16.925-7.1C557.116,719.993,558.125,723.225,554.48,725.707Z" transform="translate(825.834 -786.754)" opacity="0.1"/>
    <g id="Group_2" data-name="Group 2" transform="translate(1180.889 -356.547)" opacity="0.1">
      <path id="Path_178" data-name="Path 178" d="M296.82,310.6v.105A.541.541,0,0,0,296.82,310.6Z" transform="translate(-294.4 -309.86)"/>
      <path id="Path_179" data-name="Path 179" d="M342.021,334.616c-1.3.6-2.931.813-3.716,1.963s-.358,2.608-.547,3.933c-.351,2.37-3.541,4.158-5.56,2.741a5.819,5.819,0,0,1-1.606-2.1c-1.9-3.506-4.543-7.593-8.7-7.663a20.365,20.365,0,0,0-5.153,1.157c-1.711.456-3.751.491-5.034-.7-.982-.89-1.444-2.426-2.762-2.741s-2.531.89-3.141,2.1-1.087,2.58-2.307,3.19c-.547.266-1.185.351-1.718.638-2.531,1.4-1.255,6.359-4.13,6.892L296.532,332.9a6.66,6.66,0,0,0-.792-2.994c-.379-.6-.94-1.066-1.367-1.634a5.027,5.027,0,0,1-.926-2.391,5.8,5.8,0,0,0,.926,4.207c.428.568.989,1.038,1.367,1.634a6.66,6.66,0,0,1,.792,2.994l1.115,11.127c2.875-.533,1.6-5.5,4.13-6.892.533-.287,1.171-.372,1.718-.638,1.22-.61,1.7-2.005,2.307-3.19s1.8-2.4,3.141-2.1,1.781,1.851,2.762,2.741c1.283,1.171,3.323,1.115,5.034.7s3.379-1.185,5.153-1.157c4.158.07,6.8,4.137,8.7,7.663a5.875,5.875,0,0,0,1.606,2.1c2.019,1.4,5.209-.372,5.56-2.741.189-1.325-.224-2.8.547-3.933s2.419-1.4,3.716-1.963c3.022-1.4,4.13-4.957,3.877-8.2C345.7,330.872,344.489,333.48,342.021,334.616Z" transform="translate(-293.369 -314.648)"/>
      <path id="Path_180" data-name="Path 180" d="M368.226,311.049c-.259.827-.743,1.585-1.024,2.412a7.012,7.012,0,0,0-.231,3.008,5.68,5.68,0,0,1,.259-1.164c.28-.827.764-1.585,1.024-2.412a5.1,5.1,0,0,0,.133-2.363,5.3,5.3,0,0,1-.161.519Z" transform="translate(-315.345 -310.06)"/>
    </g>
    <path id="Path_181" data-name="Path 181" d="M265.7,445c-5.2-1.136-17.409-4.74-17.409-4.74l-2.181-.435c0-7.593.407-14.941.547-17.437h.049s10.4,3.387,12.887,5.2,10.173,1.36,10.173,1.36,11.982.7,21.931,11.758S270.9,446.144,265.7,445Z" transform="translate(901.644 -700.038)" opacity="0.1"/>
    <path id="Path_182" data-name="Path 182" d="M200.809,423.193a3.015,3.015,0,0,0-.7,5.069c2.748,2.279,6.773,5.013,10.608,5.4,6.408.645,21.819,3.737,23.355,4.046l.238.056c1.269.372,12.389,3.632,17.29,4.7,5.2,1.143,35.947,6.794,26-4.284a35.157,35.157,0,0,0-21.735-11.744,3.8,3.8,0,0,0-.4,0c-1.164.056-7.712.28-10-1.4a21.467,21.467,0,0,0-3.737-1.858,71.517,71.517,0,0,0-15.285-4.41l-10.608-1.788a3.071,3.071,0,0,0-1.788.224Z" transform="translate(915.717 -698.408)" fill="#a1616a"/>
    <path id="Path_183" data-name="Path 183" d="M216.012,383.519l-4.971-.449s-5.427,4.067-9.5,4.067-6.556,5.2-6.556,5.2-6.78,3.162-9.045,3.618-6.1,2.713-4.971,3.618-.224,2.938-2.258,4.522-5.2,9.718-2.489,10.847,10.173,3.393,12.207,4.522a5.616,5.616,0,0,0,4.522,0s11.975-15.6,18.082-12.656,14.5,2.938,14.5,2.938l6.563-13.791Z" transform="translate(922.844 -688.287)" fill="#6c63ff"/>
    <path id="Path_184" data-name="Path 184" d="M245.174,502v58.692h93.91v9.816H246.156v42.068H236.34V502Z" transform="translate(904.564 -723.831)" fill="#464353"/>
    <path id="Path_185" data-name="Path 185" d="M187.55,400.18h37.16l3.912,66.524h76.9A26.643,26.643,0,0,1,323.6,473.54a24.091,24.091,0,0,1,7.755,15.663v99.778h-9.781l.968-96.686a13,13,0,0,0-.308-2.994c-.6-2.636-2.293-7.446-6.815-10.145a12.705,12.705,0,0,0-6.521-1.7h-87.1L216.885,408H187.55Z" transform="translate(919.145 -693.4)" fill="#464353"/>
    <path id="Path_186" data-name="Path 186" d="M169.42,613.358c0,43.765,25.4,79.228,56.736,79.228s56.736-35.477,56.736-79.228-25.4-79.228-56.736-79.228S169.42,569.6,169.42,613.358Zm3.912-1.059c0-38.31,22.338-69.37,49.886-69.37s49.893,31.06,49.893,69.37-22.338,69.37-49.893,69.37S173.332,650.61,173.332,612.3Z" transform="translate(924.564 -733.433)" fill="#35323e"/>
    <ellipse id="Ellipse_27" data-name="Ellipse 27" cx="8.806" cy="13.209" rx="8.806" ry="13.209" transform="translate(1136.045 -130.838)" fill="#35323e"/>
    <ellipse id="Ellipse_28" data-name="Ellipse 28" cx="1.956" cy="3.912" rx="1.956" ry="3.912" transform="translate(1140.939 -121.05)" fill="#464353"/>
    <path id="Path_187" data-name="Path 187" d="M389.86,622.979v10.755c3.071-1.914,6.443-1.4,9.423-.112a17.767,17.767,0,0,1,9.767,11.5c2.37,8.2,7.011,24.343,11.134,39.516,5.868,21.483,16.631,16.575,16.631,16.575l74.832,5.385,31.8-16.126v-9.816H463.227s-18.587,6.85-26.412,9.816-4.908-2.938-15.222-39.845S389.86,622.979,389.86,622.979Z" transform="translate(858.682 -759.678)" fill="#464353"/>
    <path id="Path_188" data-name="Path 188" d="M416.33,646.1l74.832,5.378,31.8-16.14L444.7,634.36Z" transform="translate(879.167 -704.542)" opacity="0.1"/>
    <ellipse id="Ellipse_29" data-name="Ellipse 29" cx="41.696" cy="8.021" rx="41.696" ry="8.021" transform="translate(1680.616 -77.678)" fill="#6c63ff"/>
    <ellipse id="Ellipse_30" data-name="Ellipse 30" cx="4.852" cy="6.352" rx="4.852" ry="6.352" transform="translate(1716.767 -79.416)" fill="#3f3d56"/>
    <ellipse id="Ellipse_31" data-name="Ellipse 31" cx="4.852" cy="6.352" rx="4.852" ry="6.352" transform="translate(1716.767 -87.185)" fill="#3f3d56"/>
    <ellipse id="Ellipse_32" data-name="Ellipse 32" cx="4.852" cy="6.352" rx="4.852" ry="6.352" transform="translate(1716.767 -94.946)" fill="#3f3d56"/>
    <ellipse id="Ellipse_33" data-name="Ellipse 33" cx="4.852" cy="6.352" rx="4.852" ry="6.352" transform="translate(1716.767 -102.715)" fill="#3f3d56"/>
    <ellipse id="Ellipse_34" data-name="Ellipse 34" cx="4.852" cy="6.352" rx="4.852" ry="6.352" transform="translate(1716.767 -110.484)" fill="#3f3d56"/>
    <ellipse id="Ellipse_35" data-name="Ellipse 35" cx="4.852" cy="6.352" rx="4.852" ry="6.352" transform="translate(1716.767 -118.252)" fill="#3f3d56"/>
    <ellipse id="Ellipse_36" data-name="Ellipse 36" cx="4.852" cy="6.352" rx="4.852" ry="6.352" transform="translate(1716.767 -126.021)" fill="#3f3d56"/>
    <path id="Path_189" data-name="Path 189" d="M1072.8,555.86a24.052,24.052,0,0,0,1.809-2.664l-12.761-2.1,13.8.1a23.312,23.312,0,0,0,.442-18.419l-18.5,9.6,17.066-12.55a23.257,23.257,0,1,0-38.408,26.026,23.539,23.539,0,0,0-2.65,4.242l16.561,8.6-17.676-5.911a23.271,23.271,0,0,0,3.744,21.833,23.25,23.25,0,1,0,36.557,0,23.277,23.277,0,0,0,0-28.747Z" transform="translate(666.993 -728.675)" fill="#6c63ff"/>
    <path id="Path_190" data-name="Path 190" d="M1031.28,592.264a23.136,23.136,0,0,0,4.971,14.38,23.25,23.25,0,1,0,36.557,0C1075.956,602.69,1031.28,589.656,1031.28,592.264Z" transform="translate(666.984 -750.705)" opacity="0.1"/>
    <ellipse id="Ellipse_37" data-name="Ellipse 37" cx="28.69" cy="5.518" rx="28.69" ry="5.518" transform="translate(1040.165 -73.45)" fill="#6c63ff"/>
    <ellipse id="Ellipse_38" data-name="Ellipse 38" cx="3.337" cy="4.375" rx="3.337" ry="4.375" transform="translate(1065.041 -74.649)" fill="#3f3d56"/>
    <ellipse id="Ellipse_39" data-name="Ellipse 39" cx="3.337" cy="4.375" rx="3.337" ry="4.375" transform="translate(1065.041 -79.991)" fill="#3f3d56"/>
    <ellipse id="Ellipse_40" data-name="Ellipse 40" cx="3.337" cy="4.375" rx="3.337" ry="4.375" transform="translate(1065.041 -85.334)" fill="#3f3d56"/>
    <ellipse id="Ellipse_41" data-name="Ellipse 41" cx="3.337" cy="4.375" rx="3.337" ry="4.375" transform="translate(1065.041 -90.684)" fill="#3f3d56"/>
    <ellipse id="Ellipse_42" data-name="Ellipse 42" cx="3.337" cy="4.375" rx="3.337" ry="4.375" transform="translate(1065.041 -96.026)" fill="#3f3d56"/>
    <ellipse id="Ellipse_43" data-name="Ellipse 43" cx="3.337" cy="4.375" rx="3.337" ry="4.375" transform="translate(1065.041 -101.369)" fill="#3f3d56"/>
    <ellipse id="Ellipse_44" data-name="Ellipse 44" cx="3.337" cy="4.375" rx="3.337" ry="4.375" transform="translate(1065.041 -106.712)" fill="#3f3d56"/>
    <path id="Path_191" data-name="Path 191" d="M138.547,609.245a16.481,16.481,0,0,0,1.248-1.83l-8.778-1.4,9.493.07a15.993,15.993,0,0,0,.3-12.676l-12.733,6.6,11.744-8.631a16,16,0,1,0-26.426,17.9,16.276,16.276,0,0,0-1.823,2.917l11.393,5.925-12.151-4.081a16.126,16.126,0,0,0-.841,5.132,15.916,15.916,0,0,0,3.422,9.893,16.007,16.007,0,1,0,25.15,0,15.986,15.986,0,0,0,0-19.786Z" transform="translate(942.333 -748.153)" fill="#6c63ff"/>
    <path id="Path_192" data-name="Path 192" d="M110,634.28a15.916,15.916,0,0,0,3.422,9.893,16.007,16.007,0,1,0,25.15,0C140.7,641.452,110,632.485,110,634.28Z" transform="translate(942.327 -763.294)" opacity="0.1"/>
    <ellipse id="Ellipse_45" data-name="Ellipse 45" cx="20.978" cy="4.032" rx="20.978" ry="4.032" transform="translate(1408.962 -89.148)" fill="#6c63ff"/>
    <ellipse id="Ellipse_46" data-name="Ellipse 46" cx="2.44" cy="3.197" rx="2.44" ry="3.197" transform="translate(1427.149 -90.032)" fill="#3f3d56"/>
    <ellipse id="Ellipse_47" data-name="Ellipse 47" cx="2.44" cy="3.197" rx="2.44" ry="3.197" transform="translate(1427.149 -93.937)" fill="#3f3d56"/>
    <ellipse id="Ellipse_48" data-name="Ellipse 48" cx="2.44" cy="3.197" rx="2.44" ry="3.197" transform="translate(1427.149 -97.842)" fill="#3f3d56"/>
    <ellipse id="Ellipse_49" data-name="Ellipse 49" cx="2.44" cy="3.197" rx="2.44" ry="3.197" transform="translate(1427.149 -101.747)" fill="#3f3d56"/>
    <ellipse id="Ellipse_50" data-name="Ellipse 50" cx="2.44" cy="3.197" rx="2.44" ry="3.197" transform="translate(1427.149 -105.66)" fill="#3f3d56"/>
    <ellipse id="Ellipse_51" data-name="Ellipse 51" cx="2.44" cy="3.197" rx="2.44" ry="3.197" transform="translate(1427.149 -109.565)" fill="#3f3d56"/>
    <ellipse id="Ellipse_52" data-name="Ellipse 52" cx="2.44" cy="3.197" rx="2.44" ry="3.197" transform="translate(1427.149 -113.47)" fill="#3f3d56"/>
    <path id="Path_193" data-name="Path 193" d="M652.217,614.948a11.494,11.494,0,0,0,.911-1.332l-6.415-1.059,6.941.056a11.772,11.772,0,0,0,1.066-4.908,11.632,11.632,0,0,0-.848-4.375l-9.311,4.831,8.589-6.31a11.695,11.695,0,1,0-19.316,13.1,11.778,11.778,0,0,0-1.339,2.1l8.33,4.326-8.876-2.98a11.709,11.709,0,0,0,1.886,10.987,11.695,11.695,0,1,0,18.384,0,11.709,11.709,0,0,0,0-14.471Z" transform="translate(786.515 -751.942)" fill="#6c63ff"/>
    <path id="Path_194" data-name="Path 194" d="M631.33,633.217a11.646,11.646,0,0,0,2.5,7.236,11.695,11.695,0,1,0,18.384,0C653.787,638.461,631.33,631.906,631.33,633.217Z" transform="translate(786.515 -762.996)" opacity="0.1"/>
    <circle id="Ellipse_53" data-name="Ellipse 53" cx="10.706" cy="10.706" r="10.706" transform="translate(1320.969 -459.971)" fill="#6c63ff" opacity="0.1"/>
    <circle id="Ellipse_54" data-name="Ellipse 54" cx="17.949" cy="17.949" r="17.949" transform="translate(1352.029 -514.954)" fill="#6c63ff" opacity="0.1"/>
    <circle id="Ellipse_55" data-name="Ellipse 55" cx="17.949" cy="17.949" r="17.949" transform="translate(1328.275 -427.859)" fill="#6c63ff" opacity="0.1"/>
    <circle id="Ellipse_56" data-name="Ellipse 56" cx="10.706" cy="10.706" r="10.706" transform="translate(1668.382 -347.089)" fill="#6c63ff" opacity="0.1"/>
    <circle id="Ellipse_57" data-name="Ellipse 57" cx="17.949" cy="17.949" r="17.949" transform="translate(1622.829 -402.072)" fill="#6c63ff" opacity="0.1"/>
    <circle id="Ellipse_58" data-name="Ellipse 58" cx="17.949" cy="17.949" r="17.949" transform="translate(1646.59 -314.977)" fill="#6c63ff" opacity="0.1"/>
    <circle id="Ellipse_59" data-name="Ellipse 59" cx="6.065" cy="6.065" r="6.065" transform="translate(1067.831 -323.054)" fill="#6c63ff" opacity="0.1"/>
    <circle id="Ellipse_60" data-name="Ellipse 60" cx="10.166" cy="10.166" r="10.166" transform="translate(1089.728 -350.111)" fill="#6c63ff" opacity="0.1"/>
    <circle id="Ellipse_61" data-name="Ellipse 61" cx="10.166" cy="10.166" r="10.166" transform="translate(1041.069 -334.342)" fill="#6c63ff" opacity="0.1"/>
    <circle id="Ellipse_62" data-name="Ellipse 62" cx="25.416" cy="25.416" r="25.416" transform="translate(1129.679 -456.711)" fill="#6c63ff" opacity="0.1"/>
    <circle id="Ellipse_63" data-name="Ellipse 63" cx="14.668" cy="14.668" r="14.668" transform="translate(1286.964 -316.954)" fill="#6c63ff" opacity="0.1"/>
    <circle id="Ellipse_64" data-name="Ellipse 64" cx="14.668" cy="14.668" r="14.668" transform="translate(1394.939 -246.84)" fill="#6c63ff" opacity="0.1"/>
  </g>
</svg>
