<svg xmlns="http://www.w3.org/2000/svg" xmlns:xlink="http://www.w3.org/1999/xlink" width="581.593" height="503.884" viewBox="0 0 581.593 503.884">
  <defs>
    <linearGradient id="linear-gradient" x1="0.5" y1="1" x2="0.5" gradientUnits="objectBoundingBox">
      <stop offset="0" stop-color="gray" stop-opacity="0.251"/>
      <stop offset="0.54" stop-color="gray" stop-opacity="0.122"/>
      <stop offset="1" stop-color="gray" stop-opacity="0.102"/>
    </linearGradient>
    <linearGradient id="linear-gradient-2" x1="0.5" y1="1" x2="0.5" y2="0" xlink:href="#linear-gradient"/>
    <linearGradient id="linear-gradient-3" x1="0.5" y1="1" x2="0.5" y2="0" xlink:href="#linear-gradient"/>
  </defs>
  <g id="gift" transform="translate(-669 -433.196)">
    <g id="Group_3" data-name="Group 3" transform="translate(749.675 522.95)" opacity="0.5">
      <rect id="Rectangle_4" data-name="Rectangle 4" width="2.308" height="13.077" transform="translate(5.385)" fill="#47e6b1"/>
      <rect id="Rectangle_5" data-name="Rectangle 5" width="2.308" height="13.077" transform="translate(13.077 5.385) rotate(90)" fill="#47e6b1"/>
    </g>
    <g id="Group_4" data-name="Group 4" transform="translate(831.701 807.561)" opacity="0.5">
      <rect id="Rectangle_6" data-name="Rectangle 6" width="2.308" height="13.077" transform="translate(5.392)" fill="#47e6b1"/>
      <rect id="Rectangle_7" data-name="Rectangle 7" width="2.308" height="13.077" transform="translate(13.077 5.385) rotate(90)" fill="#47e6b1"/>
    </g>
    <g id="Group_5" data-name="Group 5" transform="translate(716.881 655.657)" opacity="0.5">
      <rect id="Rectangle_8" data-name="Rectangle 8" width="2.308" height="13.077" transform="translate(5.385)" fill="#47e6b1"/>
      <rect id="Rectangle_9" data-name="Rectangle 9" width="2.308" height="13.077" transform="translate(13.077 5.385) rotate(90)" fill="#47e6b1"/>
    </g>
    <g id="Group_6" data-name="Group 6" transform="translate(1120.914 433.196)" opacity="0.5">
      <rect id="Rectangle_10" data-name="Rectangle 10" width="2.308" height="13.077" transform="translate(5.385)" fill="#47e6b1"/>
      <rect id="Rectangle_11" data-name="Rectangle 11" width="2.308" height="13.077" transform="translate(13.077 5.385) rotate(90)" fill="#47e6b1"/>
    </g>
    <g id="Group_7" data-name="Group 7" transform="translate(731.504 465.72)" opacity="0.5">
      <rect id="Rectangle_12" data-name="Rectangle 12" width="2.308" height="13.077" transform="translate(5.392)" fill="#47e6b1"/>
      <rect id="Rectangle_13" data-name="Rectangle 13" width="2.308" height="13.077" transform="translate(13.077 5.385) rotate(90)" fill="#47e6b1"/>
    </g>
    <path id="Path_195" data-name="Path 195" d="M341.278,556.955a2.827,2.827,0,0,1-1.573-3.417,1.386,1.386,0,0,0,.062-.312h0a1.386,1.386,0,0,0-2.543-.942h0a1.385,1.385,0,0,0-.159.277,2.827,2.827,0,0,1-3.417,1.573,1.386,1.386,0,0,0-.312-.062h0a1.386,1.386,0,0,0-.942,2.543h0a1.387,1.387,0,0,0,.277.159,2.828,2.828,0,0,1,1.573,3.417,1.387,1.387,0,0,0-.062.312h0a1.386,1.386,0,0,0,2.543.943h0a1.387,1.387,0,0,0,.159-.277,2.827,2.827,0,0,1,3.417-1.573,1.387,1.387,0,0,0,.312.062h0a1.386,1.386,0,0,0,.943-2.543h0A1.39,1.39,0,0,0,341.278,556.955Z" transform="translate(442.14 203.938)" fill="#4d8af0" opacity="0.5"/>
    <path id="Path_196" data-name="Path 196" d="M324.781,736.3a2.828,2.828,0,0,1-1.573-3.417,1.386,1.386,0,0,0,.062-.312h0a1.386,1.386,0,0,0-2.543-.943h0a1.389,1.389,0,0,0-.159.277,2.828,2.828,0,0,1-3.41,1.58,1.384,1.384,0,0,0-.312-.062h0a1.386,1.386,0,0,0-.942,2.543h0a1.391,1.391,0,0,0,.277.159,2.827,2.827,0,0,1,1.573,3.417,1.386,1.386,0,0,0-.062.312h0a1.386,1.386,0,0,0,2.543.943h0a1.388,1.388,0,0,0,.159-.277,2.828,2.828,0,0,1,3.417-1.573,1.386,1.386,0,0,0,.312.062h0a1.386,1.386,0,0,0,.943-2.543h0a1.387,1.387,0,0,0-.284-.166Z" transform="translate(447.202 148.882)" fill="#4d8af0" opacity="0.5"/>
    <path id="Path_197" data-name="Path 197" d="M931.781,339.3a2.827,2.827,0,0,1-1.573-3.417,1.387,1.387,0,0,0,.062-.312h0a1.386,1.386,0,0,0-2.543-.943h0a1.384,1.384,0,0,0-.159.277,2.827,2.827,0,0,1-3.41,1.58,1.383,1.383,0,0,0-.312-.062h0a1.386,1.386,0,0,0-.943,2.543h0a1.385,1.385,0,0,0,.277.159,2.828,2.828,0,0,1,1.573,3.417,1.383,1.383,0,0,0-.062.312h0a1.386,1.386,0,0,0,2.543.942h0a1.382,1.382,0,0,0,.159-.277,2.827,2.827,0,0,1,3.417-1.573,1.388,1.388,0,0,0,.312.062h0a1.386,1.386,0,0,0,.943-2.543h0A1.388,1.388,0,0,0,931.781,339.3Z" transform="translate(260.868 270.751)" fill="#4d8af0" opacity="0.5"/>
    <path id="Path_198" data-name="Path 198" d="M904.308,528.645a2.827,2.827,0,0,1-1.573-3.417,1.39,1.39,0,0,0,.062-.312h0a1.386,1.386,0,0,0-2.543-.942h0a1.385,1.385,0,0,0-.159.277,2.827,2.827,0,0,1-3.417,1.573,1.39,1.39,0,0,0-.312-.062h0a1.386,1.386,0,0,0-.943,2.543h0a1.388,1.388,0,0,0,.277.159,2.828,2.828,0,0,1,1.573,3.417,1.384,1.384,0,0,0-.062.312h0a1.386,1.386,0,0,0,2.543.943h0a1.385,1.385,0,0,0,.159-.277,2.827,2.827,0,0,1,3.417-1.573,1.386,1.386,0,0,0,.312.062h0a1.386,1.386,0,0,0,.943-2.543h0A1.388,1.388,0,0,0,904.308,528.645Z" transform="translate(269.303 212.629)" fill="#4d8af0" opacity="0.5"/>
    <path id="Path_199" data-name="Path 199" d="M924.778,151.315A2.828,2.828,0,0,1,923.2,147.9a1.39,1.39,0,0,0,.063-.312h0a1.386,1.386,0,0,0-2.543-.943h0a1.382,1.382,0,0,0-.159.277,2.828,2.828,0,0,1-3.417,1.573,1.386,1.386,0,0,0-.312-.062h0a1.386,1.386,0,0,0-.943,2.543h0a1.386,1.386,0,0,0,.277.159,2.827,2.827,0,0,1,1.573,3.417,1.389,1.389,0,0,0-.062.312h0a1.386,1.386,0,0,0,2.543.943h0a1.393,1.393,0,0,0,.159-.277,2.828,2.828,0,0,1,3.417-1.573,1.384,1.384,0,0,0,.312.062h0a1.386,1.386,0,0,0,.943-2.543h0a1.384,1.384,0,0,0-.277-.159Z" transform="translate(263.02 328.46)" fill="#4d8af0" opacity="0.5"/>
    <path id="Path_200" data-name="Path 200" d="M989,643.365a2.828,2.828,0,0,1-1.573-3.417,1.386,1.386,0,0,0,.062-.312h0a1.386,1.386,0,0,0-2.543-.943h0a1.382,1.382,0,0,0-.159.277,2.828,2.828,0,0,1-3.417,1.573,1.387,1.387,0,0,0-.312-.062h0a1.386,1.386,0,0,0-.943,2.543h0a1.388,1.388,0,0,0,.277.159,2.827,2.827,0,0,1,1.573,3.417,1.386,1.386,0,0,0-.062.312h0a1.386,1.386,0,0,0,2.543.943h0a1.386,1.386,0,0,0,.159-.277A2.827,2.827,0,0,1,988.021,646a1.386,1.386,0,0,0,.312.062h0a1.386,1.386,0,0,0,.943-2.543h0A1.386,1.386,0,0,0,989,643.365Z" transform="translate(243.306 177.412)" fill="#4d8af0" opacity="0.5"/>
    <circle id="Ellipse_65" data-name="Ellipse 65" cx="4.616" cy="4.616" r="4.616" transform="translate(669 607.228)" fill="#ff6584" opacity="0.5"/>
    <circle id="Ellipse_66" data-name="Ellipse 66" cx="4.616" cy="4.616" r="4.616" transform="translate(1184.035 529.824)" fill="#ff6584" opacity="0.5"/>
    <circle id="Ellipse_67" data-name="Ellipse 67" cx="5.198" cy="5.198" r="5.198" transform="translate(973.529 702.408)" fill="#ff6584" opacity="0.5"/>
    <path id="Path_393" data-name="Path 393" d="M4.616,0A4.616,4.616,0,1,1,0,4.616,4.616,4.616,0,0,1,4.616,0Z" transform="translate(1241.362 668.603)" fill="#ff6584" opacity="0.5"/>
    <circle id="Ellipse_70" data-name="Ellipse 70" cx="5.198" cy="5.198" r="5.198" transform="translate(867.669 460.758)" fill="#47e6b1" opacity="0.5"/>
    <circle id="Ellipse_71" data-name="Ellipse 71" cx="4.616" cy="4.616" r="4.616" transform="translate(1164.394 859.233)" fill="#ff6584" opacity="0.5"/>
    <path id="Path_201" data-name="Path 201" d="M486.727,468a21.388,21.388,0,0,0,9.377,24.006c3.354,1.954,7.214,2.938,10.465,5.059,7.062,4.6,9.848,13.41,12.142,21.518,2.633,9.321,5.274,19.176,2.862,28.553-1.539,5.981-5.038,11.269-7.027,17.118a35.717,35.717,0,0,0-1.7,15.246c.291,2.731.97,5.544,2.841,7.582,2.7,2.911,7.055,3.347,10.964,4.047a53.21,53.21,0,0,1,38.255,29.62" transform="translate(394.823 229.613)" fill="none" stroke="#707070" stroke-miterlimit="10" stroke-width="2"/>
    <path id="Path_202" data-name="Path 202" d="M487.937,468a21.388,21.388,0,0,0,9.377,24.006c3.354,1.954,7.214,2.938,10.465,5.059,7.062,4.6,9.848,13.41,12.142,21.518,2.633,9.321,5.274,19.176,2.862,28.553-1.539,5.981-5.038,11.269-7.027,17.118a35.717,35.717,0,0,0-1.7,15.246c.291,2.731.97,5.544,2.841,7.582,2.7,2.911,7.055,3.347,10.964,4.047a53.21,53.21,0,0,1,38.255,29.62" transform="translate(394.452 229.613)" fill="none" stroke="#535461" stroke-miterlimit="10" stroke-width="2"/>
    <path id="Path_203" data-name="Path 203" d="M631.1,372.4c-6.736,9.391-13.729,19.488-14.3,31.034-.88,17.734,13.306,32.24,19.64,48.831a58.034,58.034,0,0,1-1.948,45.393c-3.091,6.39-7.5,12.738-6.93,19.814.326,4.318,2.488,8.247,4.227,12.218a68.887,68.887,0,0,1-4,62.2" transform="translate(354.65 258.959)" fill="none" stroke="#707070" stroke-miterlimit="10" stroke-width="2"/>
    <path id="Path_204" data-name="Path 204" d="M632.294,372.4c-6.729,9.425-13.722,19.495-14.311,31.034-.88,17.734,13.306,32.24,19.64,48.831a58.034,58.034,0,0,1-1.948,45.393c-3.091,6.39-7.5,12.738-6.93,19.814.326,4.318,2.488,8.247,4.227,12.218a68.886,68.886,0,0,1-4,62.2" transform="translate(354.285 258.959)" fill="none" stroke="#535461" stroke-miterlimit="10" stroke-width="2"/>
    <path id="Path_205" data-name="Path 205" d="M765.46,494.28l3.257,26.55c.43,3.527.8,7.374-1.095,10.4-1.795,2.848-5.163,4.207-7.783,6.313-8.6,6.93-7.817,20.174-4.851,30.8s7.235,22.052,3.112,32.281c-1.7,4.221-4.713,7.776-6.93,11.74a35.947,35.947,0,0,0-4.3,22.3" transform="translate(314.801 221.545)" fill="none" stroke="#707070" stroke-miterlimit="10" stroke-width="2"/>
    <path id="Path_206" data-name="Path 206" d="M766.63,494.28l3.257,26.55c.43,3.527.8,7.374-1.095,10.4-1.795,2.848-5.163,4.207-7.783,6.313-8.6,6.93-7.817,20.174-4.851,30.8s7.235,22.052,3.112,32.281c-1.7,4.221-4.713,7.776-6.93,11.74a35.947,35.947,0,0,0-4.3,22.3" transform="translate(314.442 221.545)" fill="none" stroke="#535461" stroke-miterlimit="10" stroke-width="2"/>
    <g id="Group_8" data-name="Group 8" transform="translate(802.414 439.708)" opacity="0.7">
      <path id="Path_207" data-name="Path 207" d="M735.216,262.85a78.728,78.728,0,0,0-103.053-74.84,94.555,94.555,0,0,0,1-13.355A78.679,78.679,0,0,0,476,169.014,78.728,78.728,0,0,0,372.91,243.861c0,39.5,29.107,95.637,66.981,105.582l5.9,3.368-3.2,10.971h18.961L457.431,352.8l5.87-3.354c29.287-7.686,53.3-42.967,62.7-76.808a57.52,57.52,0,0,0,16.785,7.623l5.9,3.368-3.153,10.943H564.5l-4.117-10.984,5.87-3.354a54.9,54.9,0,0,0,12.474-5.066c5.066,37.964,32.018,84.313,66.121,93.26l5.9,3.368-3.2,10.971H666.5l-4.13-10.984,5.87-3.354C706.144,358.48,735.216,302.324,735.216,262.85Z" transform="translate(-372.91 -95.856)" fill="url(#linear-gradient)"/>
    </g>
    <path id="Path_208" data-name="Path 208" d="M316.631,385.265H298.28L301.5,374.26H312.5Z" transform="translate(577.435 318.307)" fill="#f55f44"/>
    <path id="Path_209" data-name="Path 209" d="M533.671,275.434c0,42.053-34.09,103.656-76.136,103.656S381.4,317.48,381.4,275.434a76.139,76.139,0,1,1,152.278,0Z" transform="translate(426.898 312.099)" fill="#ff6584"/>
    <path id="Path_210" data-name="Path 210" d="M311.08,373.3H300.074l-6.424-3.666H317.5Z" transform="translate(578.857 319.729)" fill="#535461"/>
    <path id="Path_211" data-name="Path 211" d="M435.3,223.78s-32.108,17.43-36.7,52.289" transform="translate(421.618 304.582)" fill="#fff" opacity="0.1"/>
    <path id="Path_212" data-name="Path 212" d="M460.3,288.685H441.95l3.216-11.005h11.005Z" transform="translate(533.332 347.955)" fill="#4d8af0"/>
    <path id="Path_213" data-name="Path 213" d="M677.341,178.854c0,42.053-34.09,103.656-76.136,103.656S525.07,220.9,525.07,178.854a76.139,76.139,0,1,1,152.278,0Z" transform="translate(382.795 341.746)" fill="#6c63ff"/>
    <path id="Path_214" data-name="Path 214" d="M454.75,276.713H443.744l-6.424-3.673h23.854Z" transform="translate(534.753 349.379)" fill="#535461"/>
    <path id="Path_215" data-name="Path 215" d="M578.966,127.2s-32.108,17.43-36.7,52.289" transform="translate(377.515 334.23)" fill="#fff" opacity="0.1"/>
    <path id="Path_216" data-name="Path 216" d="M602.761,411.832H584.41l3.216-11.012h11.005Z" transform="translate(489.6 310.154)" fill="#3ad29f"/>
    <path id="Path_217" data-name="Path 217" d="M819.8,301.994c0,42.053-34.09,103.656-76.136,103.656s-76.143-61.6-76.143-103.656a76.139,76.139,0,1,1,152.278,0Z" transform="translate(339.066 303.945)" fill="#3ad29f"/>
    <path id="Path_218" data-name="Path 218" d="M597.21,399.856H586.2l-6.424-3.666h23.854Z" transform="translate(491.021 311.575)" fill="#535461"/>
    <path id="Path_219" data-name="Path 219" d="M721.426,250.34s-32.108,17.43-36.7,52.289" transform="translate(333.783 296.429)" fill="#fff" opacity="0.1"/>
    <g id="Group_9" data-name="Group 9" transform="translate(938.813 729.018)" opacity="0.5">
      <path id="Path_220" data-name="Path 220" d="M657.8,519.258c-4.415-4.428-10.853-6.189-18.13-4.962a36.377,36.377,0,0,0-19.176,10.4,22.41,22.41,0,0,0-4.013,5.5,22.46,22.46,0,0,0-3.978-5.7h0a36.109,36.109,0,0,0-19.024-10.7c-7.249-1.386-13.715.3-18.213,4.65s-6.341,10.763-5.219,18.053a36.332,36.332,0,0,0,10.111,19.322c11.49,11.858,34.422,7.228,35.393,7.02l.284-.062.88.2c.97.222,23.819,5.246,35.51-6.411a36.534,36.534,0,0,0,10.444-19.148C663.953,530.132,662.213,523.693,657.8,519.258Zm-46.1,36.73c-5.544.749-19.356,1.76-26.21-5.315a28.986,28.986,0,0,1-8.115-15.316c-.748-4.851.333-9.009,3.063-11.629a10.244,10.244,0,0,1,3.735-2.287,15.413,15.413,0,0,1,7.984-.4,28.954,28.954,0,0,1,15.052,8.594c6.854,7.027,5.413,20.832,4.491,26.349Zm43.737-19.827a28.927,28.927,0,0,1-8.379,15.17c-6.979,6.93-20.791,5.7-26.3,4.851-.825-5.544-2.031-19.328,4.948-26.286a28.908,28.908,0,0,1,15.2-8.316,15.413,15.413,0,0,1,7.977.541,10.242,10.242,0,0,1,3.7,2.356c2.675,2.682,3.687,6.826,2.855,11.677Z" transform="translate(-569.727 -513.316)" fill="url(#linear-gradient-2)"/>
    </g>
    <path id="Path_221" data-name="Path 221" d="M618.7,561.806l-2.183.457c-.929.194-22.87,4.622-33.868-6.722a35.078,35.078,0,0,1-9.7-18.49c-1.081-6.979.693-13.112,4.99-17.277s10.485-5.745,17.423-4.449a34.766,34.766,0,0,1,18.178,10.25h0c10.991,11.345,5.877,33.14,5.655,34.062ZM586.45,522.657a9.8,9.8,0,0,0-3.576,2.19c-2.606,2.529-3.645,6.48-2.931,11.13a27.763,27.763,0,0,0,7.769,14.657c6.563,6.771,19.779,5.8,25.081,5.087.88-5.274,2.266-18.455-4.3-25.226h0a27.689,27.689,0,0,0-14.408-8.219A14.747,14.747,0,0,0,586.45,522.657Z" transform="translate(368.194 215.221)" fill="#6c63ff"/>
    <path id="Path_222" data-name="Path 222" d="M633.685,562.163l-.485-2.176c-.208-.929-4.948-22.807,6.237-33.958h0a34.822,34.822,0,0,1,18.351-9.931c6.93-1.178,13.119.506,17.326,4.747s5.891,10.4,4.692,17.326a34.794,34.794,0,0,1-9.993,18.317c-11.185,11.151-33.05,6.341-33.958,6.133ZM666.6,523.541a14.747,14.747,0,0,0-7.623-.52,27.793,27.793,0,0,0-14.554,7.97h0c-6.681,6.66-5.544,19.855-4.733,25.15,5.288.8,18.49,2,25.164-4.65a27.71,27.71,0,0,0,8.018-14.554c.8-4.636-.173-8.607-2.737-11.178A9.8,9.8,0,0,0,666.6,523.541Z" transform="translate(349.961 214.96)" fill="#6c63ff"/>
    <g id="Group_10" data-name="Group 10" transform="translate(877.891 771.295)" opacity="0.5">
      <path id="Path_223" data-name="Path 223" d="M514.185,487.86H301.42v42.572h11.054V653.645H503.132V530.432h11.054Z" transform="translate(-301.42 -487.86)" fill="url(#linear-gradient-3)"/>
    </g>
    <rect id="Rectangle_14" data-name="Rectangle 14" width="185.834" height="150.823" transform="translate(891.357 784.164)" fill="#535461"/>
    <rect id="Rectangle_15" data-name="Rectangle 15" width="35.012" height="123.885" transform="translate(966.765 811.095)" fill="#6c63ff"/>
    <rect id="Rectangle_16" data-name="Rectangle 16" width="185.834" height="37.707" transform="translate(891.357 776.084)" opacity="0.1"/>
    <rect id="Rectangle_17" data-name="Rectangle 17" width="207.38" height="37.707" transform="translate(880.587 773.388)" fill="#535461"/>
    <rect id="Rectangle_18" data-name="Rectangle 18" width="35.012" height="37.707" transform="translate(966.765 773.388)" fill="#6c63ff"/>
  </g>
</svg>
